<svg width="40" height="40" viewBox="0 0 40 40" fill="none" xmlns="http://www.w3.org/2000/svg">
<mask id="mask0_101_975" style="mask-type:alpha" maskUnits="userSpaceOnUse" x="0" y="0" width="40" height="40">
<path d="M20 40C31.0457 40 40 31.0457 40 20C40 8.95431 31.0457 0 20 0C8.95431 0 0 8.95431 0 20C0 31.0457 8.95431 40 20 40Z" fill="white"/>
</mask>
<g mask="url(#mask0_101_975)">
<path d="M40 0.00862122H0.00862122V40H40V0.00862122Z" fill="#DBDBDB"/>
<path d="M20.4296 28.5395C26.3463 28.5395 31.1427 23.9854 31.1427 18.3677C31.1427 12.7499 26.3463 8.19583 20.4296 8.19583C14.513 8.19583 9.71655 12.7499 9.71655 18.3677C9.71655 23.9854 14.513 28.5395 20.4296 28.5395Z" fill="#525252"/>
<path d="M24.6737 25.9278C24.6737 25.9278 22.8266 32.4656 25.2665 34.6735C25.7734 35.1288 27.5431 35.7302 27.5431 35.7302L27.672 36.2284C27.672 36.2284 27.6548 35.481 28.1273 35.9707C28.5998 36.4604 30.0088 36.701 30.0088 36.701L32.6548 38.1614C32.6548 38.1614 34.3043 39.0807 34.3043 39.4415C34.3043 39.8109 34.3043 39.8109 34.3043 39.8109H5.26651L7.9727 37.4312L10.026 36.9415C10.026 36.9415 10.7304 36.091 11.0827 36.2113C11.4349 36.3315 11.4349 36.3315 11.4349 36.3315L12.0706 35.7302C12.0706 35.7302 14.7682 34.4931 15.3954 33.4793C16.5809 31.5807 15.9882 26.7611 15.9882 26.7611L24.6737 25.9278Z" fill="url(#paint0_linear_101_975)"/>
<path d="M14.098 24.6821C14.098 24.6821 13.1788 26.2628 17.0963 29.9054C17.4485 30.2319 18.2389 31.2199 18.6083 31.3659C19.9829 31.89 20.7303 31.5377 21.5035 31.3058C22.1221 31.1254 22.9468 30.1546 22.9468 30.1546C22.9468 30.1546 26.2114 27.646 26.263 26.3745C26.3231 25.0944 26.7269 24.6821 26.7269 24.6821C26.7269 24.6821 26.8128 24.5102 27.1479 24.6735C27.7235 24.9484 28.0585 23.8487 28.1616 22.6288C28.2389 21.701 27.732 20.5154 27.1393 20.5669C26.5551 20.6185 26.787 20.713 26.787 20.713C26.7784 20.6443 26.8386 19.5446 26.6152 18.6855C26.2802 17.3797 26.8042 14.2095 25.3953 13.3762C23.9863 12.5429 25.0345 12.5343 22.9984 11.9329C22.1307 11.6752 18.763 12.0274 17.6461 11.6322C16.5293 11.2456 14.6994 15.3436 14.3214 16.0996C13.8575 17.036 14.0379 20.8848 14.098 21.5549C14.1582 22.225 14.1582 22.225 14.1582 22.225C14.1582 22.225 13.7458 20.4467 13.3936 20.335C13.0413 20.2233 12.397 20.2233 12.5087 21.5549C12.629 22.8865 12.2853 22.0188 13.2733 24.3298C13.8575 25.7044 14.098 24.6821 14.098 24.6821Z" fill="#F6D6C1"/>
<path d="M32.1651 16.0223C28.9864 4.86255 24.7424 5.26633 24.1239 5.18042C23.5053 5.1031 21.9074 6.17698 21.9074 6.17698C21.9074 6.17698 16.5809 2.34537 11.3661 10.6615C5.41251 20.1546 9.23554 24.4674 11.1084 26.3316C11.2201 26.1512 11.5122 26.8299 13.1788 27.1392C15.3266 27.5344 16.641 25.5069 19.1582 17.5086C21.6754 9.51032 23.1445 11.8986 23.1445 11.8986C25.3953 16.3574 25.4898 13.2474 28.0156 18.7887C30.5414 24.3299 25.885 27.0705 25.885 27.0705C25.885 27.0705 34.4417 24.0206 32.1651 16.0223Z" fill="#525252"/>
<path d="M9.72529 26.0653C10.0775 26.7697 11.9847 27.9381 13.9607 26.5034C13.9607 26.5034 13.3249 27.8608 11.3232 27.4656C9.32151 27.0618 8.64281 25.5498 9.52769 24.2697C10.404 22.9897 11.0054 23.067 11.0054 23.067C11.0054 23.067 8.60845 25.0257 9.72529 26.0653Z" fill="#525252"/>
<path d="M9.4933 26.0137C10.1548 26.4433 12.3885 26.4605 13.3593 24.2182C13.3593 24.2182 13.5053 25.713 11.5809 26.3917C9.65653 27.0704 8.29913 26.1168 8.39364 24.5618C8.49673 23.0155 9.04656 22.7749 9.04656 22.7749C9.04656 22.7749 7.99845 25.6959 9.4933 26.0137Z" fill="#525252"/>
<path d="M9.01228 24.3213C9.56211 24.5533 11.6068 24.2612 12.8095 22.4055C12.8095 22.4055 12.7322 23.5309 10.8765 24.3213C9.02087 25.1117 7.90403 24.5705 8.21331 23.3677C8.52259 22.165 9.06383 21.9072 9.06383 21.9072C9.06383 21.9072 7.68066 24.2784 9.01228 24.3213Z" fill="#525252"/>
<path d="M10.5671 25.7216C11.117 25.9536 13.1616 25.6615 14.3644 23.8058C14.3644 23.8058 14.2871 24.9313 12.4314 25.7216C10.5757 26.512 9.45889 25.9708 9.76817 24.768C10.0774 23.5653 10.6187 23.3075 10.6187 23.3075C10.6187 23.3075 9.24412 25.6787 10.5671 25.7216Z" fill="#525252"/>
<path d="M9.76821 14.622C9.76821 14.622 7.04484 19.9399 8.20464 20.2234C9.36443 20.5069 10.1634 20.8591 10.5242 20.3866C10.5242 20.3866 6.84725 21.5893 7.92113 18.7457C9.0036 15.9021 9.76821 14.622 9.76821 14.622Z" fill="#525252"/>
<path d="M9.20977 17.9038C9.20977 17.9038 5.12901 26.0224 15.4898 32.6976C15.4898 32.6976 6.01389 26.5378 9.52764 17.9811L9.20977 17.9038Z" fill="#525252"/>
<path d="M9.33006 17.6288C9.33006 17.6288 6.4091 24.6649 15.2064 33.4278C15.2064 33.4278 7.40566 26.4261 9.64793 17.7147L9.33006 17.6288Z" fill="#525252"/>
<path d="M10.8078 25.4209C10.8078 25.4209 11.2115 29.0206 12.6892 30.3436C12.6892 30.3436 11.1256 29.2611 11.8129 24.7079C12.5002 20.1546 10.8078 25.4209 10.8078 25.4209Z" fill="#525252"/>
<path d="M11.3662 26.5206C11.3662 26.5206 12.2081 30.8076 15.3267 32.3883C15.3267 32.3883 12.0449 31.0997 13.471 25.6701C14.9057 20.2234 11.3662 26.5206 11.3662 26.5206Z" fill="#525252"/>
<path d="M12.6463 25.5413C12.6463 25.5413 11.1256 30.5584 14.1669 30.2578C14.2614 30.2492 15.0861 29.8969 16.1256 29.055C16.1256 29.055 11.2889 32.3368 12.7665 25.9364L12.6463 25.5413Z" fill="#525252"/>
<path d="M32.5517 18.3591C32.5517 18.3591 32.8782 20.1804 31.3576 23.2217C31.3576 23.2217 32.8009 20.0602 32.3627 18.677L32.5517 18.3591Z" fill="#525252"/>
<path d="M32.3113 18.6684C32.3113 18.6684 32.6549 20.5928 31.057 23.7972C31.057 23.7972 32.5776 20.4639 32.1137 19.0034L32.3113 18.6684Z" fill="#525252"/>
<path d="M32.191 20.6357C32.191 20.6357 31.4951 22.3969 29.3903 25.3179C29.3903 25.3179 31.8559 21.4433 31.8989 20.8591L32.191 20.6357Z" fill="#525252"/>
<path d="M31.2201 21.7268C31.2201 21.7268 30.5242 23.488 28.4194 26.4089C28.4194 26.4089 30.8851 22.5344 30.928 21.9502L31.2201 21.7268Z" fill="#525252"/>
<path d="M28.8404 24.3814C28.8404 24.3814 27.3971 28.9776 26.4778 28.3419C26.4778 28.3419 26.0741 28.2216 25.9194 27.7835C25.9194 27.7835 26.5208 28.7027 27.0363 27.9811C27.5603 27.2594 27.9985 25.8247 27.9125 25.3007L28.8404 24.3814Z" fill="#525252"/>
<path d="M23.7202 12.9468C23.7202 12.9468 24.7597 15.1461 26.5209 16.6237C26.5209 16.6237 24.3216 14.3815 23.6772 12.5086L23.7202 12.9468Z" fill="#525252"/>
<path d="M29.8026 24.0636C29.8026 24.0636 29.7768 28.3591 28.0844 28.2216C27.0878 28.1443 26.4435 27.1392 26.4435 27.1392C26.4865 27.2594 28.4023 29.055 29.0466 27.1392C29.4504 25.9364 28.8061 24.1409 28.8061 24.1409L29.8026 24.0636Z" fill="#525252"/>
<path d="M28.6857 25.1804C28.6857 25.1804 28.3678 28.6598 27.5688 28.9777C27.5688 28.9777 28.6084 28.256 28.8059 25.2577L28.6857 25.1804Z" fill="#525252"/>
</g>
<defs>
<linearGradient id="paint0_linear_101_975" x1="19.7792" y1="40.7919" x2="19.7792" y2="24.0157" gradientUnits="userSpaceOnUse">
<stop stop-color="#F6D6C1"/>
<stop offset="0.2519" stop-color="#F2D2BE"/>
<stop offset="0.4977" stop-color="#E6C8B3"/>
<stop offset="0.7409" stop-color="#D3B6A2"/>
<stop offset="0.9813" stop-color="#B79D8A"/>
<stop offset="1" stop-color="#B59B88"/>
</linearGradient>
</defs>
</svg>
