<svg width="6" height="8" viewBox="0 0 6 8" fill="none" xmlns="http://www.w3.org/2000/svg">
<path d="M4.80678 0.473344C4.7451 0.411542 4.67184 0.36251 4.5912 0.329056C4.51055 0.295601 4.42409 0.278381 4.33678 0.278381C4.24947 0.278381 4.16301 0.295601 4.08236 0.329056C4.00171 0.36251 3.92846 0.411542 3.86678 0.473344L0.806779 3.53334C0.744977 3.59502 0.695945 3.66828 0.662491 3.74893C0.629037 3.82958 0.611816 3.91603 0.611816 4.00334C0.611816 4.09066 0.629037 4.17711 0.662491 4.25776C0.695945 4.33841 0.744977 4.41167 0.806779 4.47334L3.86678 7.53334C3.9285 7.59507 4.00177 7.64403 4.08242 7.67743C4.16306 7.71083 4.24949 7.72802 4.33678 7.72802C4.42407 7.72802 4.5105 7.71083 4.59114 7.67743C4.67178 7.64403 4.74506 7.59507 4.80678 7.53334C4.8685 7.47162 4.91746 7.39835 4.95086 7.31771C4.98427 7.23706 5.00146 7.15063 5.00146 7.06334C5.00146 6.97606 4.98427 6.88963 4.95086 6.80898C4.91746 6.72834 4.8685 6.65507 4.80678 6.59334L2.22011 4.00001L4.80678 1.41334C5.06678 1.15334 5.06011 0.726678 4.80678 0.473344Z" fill="url(#paint0_linear_42_2360)"/>
<defs>
<linearGradient id="paint0_linear_42_2360" x1="0.750457" y1="7.49294" x2="6.76325" y2="3.94986" gradientUnits="userSpaceOnUse">
<stop stop-color="#23CF7F"/>
<stop offset="0.244792" stop-color="#14BCB6"/>
<stop offset="0.541667" stop-color="#09AEDE"/>
<stop offset="0.729167" stop-color="#02A6F6"/>
<stop offset="1" stop-color="#00A3FF"/>
</linearGradient>
</defs>
</svg>
