<svg width="14" height="14" viewBox="0 0 14 14" fill="none" xmlns="http://www.w3.org/2000/svg">
<path d="M7.00004 0.333328C10.682 0.333328 13.6667 3.318 13.6667 7C13.6667 10.682 10.682 13.6667 7.00004 13.6667C3.31804 13.6667 0.333374 10.682 0.333374 7C0.333374 3.318 3.31804 0.333328 7.00004 0.333328ZM5.58604 4.64266C5.46635 4.52183 5.30499 4.45131 5.13501 4.44554C4.96502 4.43977 4.79926 4.49919 4.67165 4.61164C4.54404 4.72408 4.46424 4.88105 4.44857 5.05041C4.4329 5.21977 4.48256 5.38871 4.58737 5.52266L4.64337 5.58599L6.05671 6.99933L4.64337 8.414C4.52254 8.53369 4.45202 8.69504 4.44625 8.86503C4.44049 9.03501 4.49991 9.20077 4.61235 9.32838C4.7248 9.45599 4.88176 9.5358 5.05112 9.55146C5.22048 9.56713 5.38943 9.51748 5.52337 9.41266L5.58604 9.35733L7.00004 7.94266L8.41404 9.35733C8.53374 9.47816 8.69509 9.54868 8.86507 9.55445C9.03506 9.56022 9.20082 9.5008 9.32843 9.38835C9.45604 9.27591 9.53584 9.11894 9.55151 8.94958C9.56718 8.78022 9.51752 8.61128 9.41271 8.47733L9.35737 8.414L7.94271 7L9.35737 5.58599C9.47821 5.4663 9.54873 5.30495 9.5545 5.13496C9.56026 4.96498 9.50084 4.79922 9.3884 4.67161C9.27595 4.544 9.11898 4.46419 8.94963 4.44853C8.78026 4.43286 8.61132 4.48251 8.47737 4.58733L8.41404 4.64266L7.00004 6.05733L5.58604 4.64266Z" fill="#C06A6A"/>
</svg>
