<svg xmlns="http://www.w3.org/2000/svg" width="12" height="11" fill="none"><rect id="backgroundrect" width="100%" height="100%" x="0" y="0" fill="none" stroke="none"/>

<g class="currentLayer" style=""><title>Layer 1</title><path d="M4.809380374126435,11.116632988619804 H2.1427103741264344 C1.9538203741264342,11.116632988619804 1.7953703741264344,11.052632988619804 1.6673703741264343,10.924632988619804 C1.5398203741264345,10.797132988619804 1.4760403741264345,10.638932988619805 1.4760403741264345,10.450032988619805 V5.783332988619804 H0.34271037412643435 C0.18715037412643443,5.783332988619804 0.08159737412643442,5.711112988619805 0.02604137412643448,5.566662988619805 C-0.029513625873565652,5.422222988619804 0.003819374126434405,5.300002988619805 0.12604137412643435,5.200002988619804 L5.692710374126435,0.1833329886198044 C5.814930374126434,0.06111098861980441 5.964930374126435,-1.1380195591437214e-8 6.142710374126434,-1.1380195591437214e-8 C6.320490374126434,-1.1380195591437214e-8 6.470490374126435,0.06111098861980441 6.592710374126434,0.1833329886198044 L8.809380374126434,2.1833329886198043 V1.1166629886198045 C8.809380374126434,0.9277729886198045 8.873380374126434,0.7693339886198044 9.001380374126434,0.6413339886198045 C9.128930374126433,0.5137779886198045 9.287200374126435,0.4499999886198045 9.476000374126434,0.4499999886198045 H10.142700374126434 C10.331600374126435,0.4499999886198045 10.489800374126434,0.5137779886198045 10.617400374126435,0.6413339886198045 C10.745400374126435,0.7693339886198044 10.809400374126435,0.9277729886198045 10.809400374126435,1.1166629886198045 V3.9833329886198046 L12.159400374126434,5.200002988619804 C12.281600374126434,5.300002988619805 12.314900374126434,5.422222988619804 12.259400374126434,5.566662988619805 C12.203800374126434,5.711112988619805 12.098300374126435,5.783332988619804 11.942700374126435,5.783332988619804 H10.809400374126435 V10.450032988619805 C10.809400374126435,10.638932988619805 10.745400374126435,10.797132988619804 10.617400374126435,10.924632988619804 C10.489800374126434,11.052632988619804 10.331600374126435,11.116632988619804 10.142700374126434,11.116632988619804 H7.476040374126434 V7.783332988619804 C7.476040374126434,7.594442988619805 7.412260374126435,7.436002988619805 7.284710374126435,7.308002988619805 C7.156710374126435,7.180442988619804 6.998260374126434,7.1166629886198045 6.809380374126435,7.1166629886198045 H5.476040374126434 C5.287150374126434,7.1166629886198045 5.128930374126434,7.180442988619804 5.001380374126434,7.308002988619805 C4.873380374126435,7.436002988619805 4.809380374126435,7.594442988619805 4.809380374126435,7.783332988619804 V11.116632988619804 zM4.809380374126435,4.466662988619804 H7.476040374126434 C7.476040374126434,4.111112988619804 7.342710374126435,3.819332988619804 7.076040374126435,3.591332988619804 C6.809380374126435,3.3637829886198043 6.498260374126434,3.2500029886198045 6.142710374126434,3.2500029886198045 C5.787150374126434,3.2500029886198045 5.476040374126434,3.3637829886198043 5.209380374126434,3.591332988619804 C4.942710374126435,3.819332988619804 4.809380374126435,4.111112988619804 4.809380374126435,4.466662988619804 z" fill="#00304A" fill-opacity="0.8" id="svg_1" class=""/></g></svg>