<svg xmlns="http://www.w3.org/2000/svg" width="13" height="13" fill="none"><rect id="backgroundrect" width="100%" height="100%" x="0" y="0" fill="none" stroke="none"/>

<g class="currentLayer" style=""><title>Layer 1</title><path d="M7.144247155189515,0.017577155189514304 C6.190557155189514,-0.05184284481048573 5.2330971551895145,0.08488715518951429 4.3369571551895145,0.4184871551895144 C3.4408171551895137,0.7520871551895141 2.627017155189514,1.2747171551895145 1.9508671551895143,1.9508671551895143 C1.2747171551895145,2.627017155189514 0.7520871551895141,3.4408171551895137 0.4184871551895144,4.3369571551895145 C0.08488715518951429,5.2330971551895145 -0.05184284481048573,6.190557155189514 0.017577155189514304,7.144247155189515 C0.2575771551895141,10.670947155189515 3.337577155189514,13.330947155189515 6.870917155189515,13.330947155189515 H9.330947155189515 C9.697547155189515,13.330947155189515 9.997547155189514,13.030947155189514 9.997547155189514,12.664247155189514 C9.997547155189514,12.297547155189514 9.697547155189515,11.997547155189514 9.330947155189515,11.997547155189514 H6.884247155189515 C4.397577155189515,11.997547155189514 2.1175771551895144,10.384247155189515 1.4975771551895143,7.977577155189515 C0.5042471551895142,4.110917155189514 4.1042471551895146,0.5042471551895142 7.970917155189515,1.504247155189514 C10.384247155189515,2.1175771551895144 11.997547155189514,4.397577155189515 11.997547155189514,6.884247155189515 V7.6175771551895135 C11.997547155189514,8.144247155189515 11.524247155189514,8.664247155189514 10.997547155189514,8.664247155189514 C10.470947155189513,8.664247155189514 9.997547155189514,8.144247155189515 9.997547155189514,7.6175771551895135 V6.784247155189513 C9.997547155189514,5.110917155189514 8.810947155189513,3.6042471551895146 7.157577155189514,3.370917155189514 C6.631547155189514,3.292697155189514 6.094447155189514,3.341267155189515 5.590987155189515,3.5125871551895145 C5.087527155189514,3.683917155189514 4.632277155189514,3.9730271551895147 4.263137155189514,4.355857155189514 C3.894007155189514,4.738697155189514 3.6216571551895145,5.204167155189515 3.4687871551895144,5.713537155189514 C3.315907155189514,6.222897155189514 3.286927155189514,6.761417155189514 3.384247155189514,7.284247155189515 C3.5011671551895143,7.914227155189515 3.797327155189514,8.497117155189514 4.237207155189514,8.963047155189514 C4.677087155189514,9.428947155189514 5.242017155189514,9.758047155189514 5.864247155189514,9.910947155189515 C7.090917155189514,10.197547155189515 8.257577155189514,9.804247155189515 9.024247155189514,9.024247155189514 C9.617547155189515,9.837547155189514 10.804247155189515,10.264247155189514 11.890947155189513,9.830947155189515 C12.784247155189513,9.477547155189514 13.330947155189515,8.564247155189515 13.330947155189515,7.604247155189514 V6.877577155189513 C13.330947155189515,3.337577155189514 10.670947155189515,0.2575771551895141 7.144247155189515,0.017577155189514304 V0.017577155189514304 zM6.664247155189514,8.664247155189514 C5.557577155189514,8.664247155189514 4.664247155189514,7.7709171551895135 4.664247155189514,6.664247155189514 C4.664247155189514,5.557577155189514 5.557577155189514,4.664247155189514 6.664247155189514,4.664247155189514 C7.7709171551895135,4.664247155189514 8.664247155189514,5.557577155189514 8.664247155189514,6.664247155189514 C8.664247155189514,7.7709171551895135 7.7709171551895135,8.664247155189514 6.664247155189514,8.664247155189514 z" fill="#00304A" id="svg_1" class=""/></g></svg>