<svg width="134" height="36" viewBox="0 0 134 36" fill="none" xmlns="http://www.w3.org/2000/svg">
<g clip-path="url(#clip0_101_608)">
<path d="M30.4529 14.9695C29.875 13.5761 28.5788 12.7106 27.0701 12.7106H22.7899V8.43043C22.7899 6.91995 21.9227 5.62295 20.5267 5.04535C19.1308 4.46775 17.6034 4.77308 16.5383 5.84021L5.34091 17.0376C4.27277 18.1058 3.9682 19.6367 4.54605 21.0308C5.1239 22.425 6.42091 23.292 7.93114 23.292H12.2085V27.5694C12.2085 29.0791 13.0753 30.3761 14.4704 30.9537C14.9219 31.1427 15.4062 31.2406 15.8956 31.2419C16.8386 31.2419 17.7531 30.8697 18.4629 30.1596L29.661 18.9614C30.7274 17.893 31.031 16.3634 30.4529 14.9695ZM27.9336 17.2357L16.7364 28.4336C16.2004 28.9696 15.582 28.7717 15.4048 28.6983C15.2277 28.6249 14.6503 28.3269 14.6503 27.5699V23.292H16.6854C20.0513 23.292 22.7899 20.5534 22.7899 17.1872C22.7853 16.8665 22.6547 16.5604 22.4262 16.3352C22.1977 16.11 21.8898 15.9837 21.569 15.9837C21.2482 15.9837 20.9403 16.11 20.7118 16.3352C20.4834 16.5604 20.3527 16.8665 20.3481 17.1872C20.3481 19.2059 18.7049 20.8502 16.6854 20.8502H7.93114C7.17413 20.8502 6.87537 20.2731 6.80194 20.0964C6.72851 19.9198 6.53143 19.3006 7.06765 18.7643L18.2656 7.56543C18.7987 7.03123 19.4165 7.2278 19.5931 7.30073C19.7697 7.37365 20.3481 7.67217 20.3481 8.42968V12.7106H18.3132C14.9471 12.7106 12.2085 15.4489 12.2085 18.8151C12.2062 18.9769 12.236 19.1375 12.2963 19.2877C12.3566 19.4379 12.4462 19.5746 12.5598 19.6898C12.6734 19.8051 12.8088 19.8966 12.9581 19.959C13.1074 20.0215 13.2676 20.0537 13.4294 20.0537C13.5912 20.0537 13.7515 20.0215 13.9007 19.959C14.05 19.8966 14.1854 19.8051 14.299 19.6898C14.4126 19.5746 14.5022 19.4379 14.5625 19.2877C14.6228 19.1375 14.6527 18.9769 14.6503 18.8151C14.6503 16.7964 16.2936 15.1524 18.3132 15.1524H27.0693C27.8263 15.1524 28.1233 15.7282 28.1965 15.9049C28.2697 16.0815 28.4683 16.7 27.9336 17.2357Z" fill="url(#paint0_linear_101_608)"/>
<path d="M17.5 35.499C7.85042 35.499 0 27.6493 0 18C0 8.35068 7.85042 0.5 17.5 0.5C27.1496 0.5 34.999 8.35068 34.999 18C34.999 27.6493 27.1493 35.499 17.5 35.499ZM17.5 2.94085C9.19815 2.94085 2.44185 9.69588 2.44185 17.999C2.44185 26.3021 9.19689 33.0571 17.5 33.0571C25.8031 33.0571 32.5581 26.3021 32.5581 17.999C32.5581 9.69588 25.8031 2.94185 17.5 2.94185V2.94085Z" fill="url(#paint1_linear_101_608)"/>
<path d="M43.1393 5.38367H48.3847C50.5462 5.38367 52.0582 6.608 52.0582 8.36123C52.0582 9.2381 51.5893 10.009 50.8485 10.5379C51.7859 11.037 52.3905 11.8833 52.3905 12.8508C52.3905 14.71 50.879 15.9649 48.6418 15.9649H43.1393V5.38367ZM48.2184 9.60096C48.9741 9.60096 49.4581 9.19293 49.4581 8.55805C49.4581 7.92318 48.9741 7.5149 48.2184 7.5149H45.7394V9.60071L48.2184 9.60096ZM48.4455 13.8336C49.2466 13.8336 49.7606 13.3953 49.7606 12.715C49.7606 12.0347 49.2466 11.5964 48.4455 11.5964H45.7394V13.8336H48.4455Z" fill="#0D1926"/>
<path d="M43.1393 20.0348H51.4836V22.2871H45.7394V24.1918H49.5335V26.3684H45.7394V28.3639H51.5431V30.6162H43.1393V20.0348Z" fill="#0D1926"/>
<path d="M53.1609 11.9745C53.1609 9.64644 54.9901 7.8324 57.333 7.8324C59.676 7.8324 61.3681 9.67672 61.3681 12.2011V12.8067H55.6701C55.9876 13.5624 56.7133 14.0765 57.6353 14.0765C58.3005 14.0765 58.8599 13.865 59.2376 13.4708L60.8551 14.9069C59.8422 15.7535 58.8448 16.1163 57.5144 16.1163C55.0655 16.1163 53.1609 14.3028 53.1609 11.9745ZM58.9646 11.0976C58.708 10.3267 58.0729 9.82787 57.2868 9.82787C56.4708 9.82787 55.8659 10.2965 55.6239 11.0976H58.9646Z" fill="#0D1926"/>
<path d="M61.9737 15.0731L63.1375 13.4256C64.1503 14.0312 64.9212 14.2871 65.7365 14.2871C66.5377 14.2871 67.0517 14.0451 67.0517 13.6522C67.0517 13.3494 66.7948 13.1685 66.2354 13.0777L64.6482 12.8359C63.061 12.5939 62.2005 11.7627 62.2005 10.4476C62.2005 8.8301 63.5003 7.84851 65.6469 7.84851C66.8295 7.84941 67.9876 8.18481 68.9876 8.81597L67.8236 10.388C66.9621 9.8894 66.191 9.66255 65.4052 9.66255C64.7701 9.66255 64.3621 9.88966 64.3621 10.2369C64.3621 10.5694 64.6189 10.7357 65.2995 10.8425L66.8864 11.0842C68.4585 11.3113 69.3505 12.1577 69.3505 13.412C69.3505 14.9692 67.8236 16.1181 65.7529 16.1181C64.2402 16.1163 62.9099 15.7534 61.9737 15.0731Z" fill="#0D1926"/>
<path d="M70.2859 7.96918H72.7048V8.55864C73.3275 8.10318 74.0799 7.85943 74.8514 7.8632C77.1338 7.8632 78.9324 9.67725 78.9324 11.9763C78.9324 14.2753 77.1035 16.0727 74.7755 16.0727C74.0351 16.0727 73.3394 15.8913 72.7348 15.5428V19.0503H70.2859V7.96918ZM76.5289 11.975C76.5289 10.8261 75.6072 9.94926 74.428 9.94926C73.7467 9.94926 73.1734 10.161 72.7348 10.5841V13.3803C73.1582 13.7729 73.7628 14 74.428 14C75.622 14 76.5289 13.1234 76.5289 11.9745V11.975Z" fill="#0D1926"/>
<path d="M79.8085 13.6215C79.8085 12.0949 81.018 11.218 83.104 11.218C83.7158 11.2171 84.3252 11.2934 84.9178 11.4451V11.0522C84.9178 10.251 84.4038 9.85815 83.3912 9.85815C82.7563 9.85815 82.0155 10.0545 80.9726 10.493L80.0957 8.69412C81.396 8.10466 82.6052 7.8175 83.8303 7.8175C86.0508 7.8175 87.3377 8.92097 87.3377 10.8407V15.9652H84.9188V15.4815C84.2688 15.9198 83.5736 16.1012 82.7119 16.1012C81.0028 16.1012 79.8085 15.0883 79.8085 13.6215ZM83.3917 14.3785C83.9814 14.3785 84.4952 14.2576 84.9183 14V12.9722C84.4443 12.8505 83.9568 12.7895 83.4674 12.7908C82.6206 12.7908 82.1371 13.0777 82.1371 13.5768C82.1371 14.0759 82.6052 14.3785 83.3912 14.3785H83.3917Z" fill="#0D1926"/>
<path d="M88.7872 7.96915H91.2348V8.77032C91.7647 8.13544 92.4743 7.78772 93.3358 7.78772C93.8046 7.80286 94.0464 7.84803 94.2581 7.98429V10.114C93.9404 9.9626 93.5175 9.87227 93.094 9.87227C92.7236 9.86926 92.3585 9.96068 92.0332 10.1379C91.7079 10.3151 91.4332 10.5723 91.2348 10.8851V15.9652H88.7872V7.96915Z" fill="#0D1926"/>
<path d="M94.7269 11.9745C94.7269 9.64644 96.5561 7.8324 98.899 7.8324C101.242 7.8324 102.935 9.67672 102.935 12.2011V12.8067H97.2369C97.553 13.5614 98.2798 14.0757 99.2018 14.0757C99.867 14.0757 100.426 13.8642 100.804 13.4701L102.422 14.9061C101.409 15.7527 100.411 16.1156 99.0809 16.1156C96.632 16.1163 94.7269 14.3028 94.7269 11.9745ZM100.531 11.0976C100.274 10.3267 99.6386 9.82787 98.8528 9.82787C98.0365 9.82787 97.4319 10.2965 97.1897 11.0976H100.531Z" fill="#0D1926"/>
<path d="M104.084 7.96914H106.531V8.51318C107.121 8.05897 107.862 7.81799 108.678 7.81799C110.552 7.81799 111.868 9.14806 111.868 11.0378V15.9652H109.42V11.3696C109.42 10.493 108.845 9.91869 107.968 9.91869C107.349 9.91869 106.865 10.1458 106.532 10.5536V15.9652H104.085L104.084 7.96914Z" fill="#0D1926"/>
<path d="M115.124 11.9745C115.124 9.64644 117.029 7.8175 119.463 7.8175C121.897 7.8175 123.801 9.64644 123.801 11.9745C123.801 14.3025 121.897 16.1163 119.463 16.1163C117.03 16.1163 115.124 14.3028 115.124 11.9745ZM121.413 11.9745C121.413 10.8256 120.551 9.93359 119.463 9.93359C118.375 9.93359 117.513 10.8256 117.513 11.9745C117.513 13.108 118.359 14 119.463 14C120.567 14 121.413 13.108 121.413 11.9745Z" fill="#0D1926"/>
<path d="M124.95 7.96918H127.368V8.55864C127.991 8.10318 128.743 7.85943 129.515 7.8632C131.797 7.8632 133.596 9.67725 133.596 11.9763C133.596 14.2753 131.767 16.0727 129.439 16.0727C128.699 16.0727 128.003 15.8913 127.398 15.5428V19.0503H124.951L124.95 7.96918ZM131.193 11.975C131.193 10.8261 130.271 9.94926 129.092 9.94926C128.41 9.94926 127.837 10.161 127.398 10.5841V13.3803C127.822 13.7729 128.426 14 129.092 14C130.286 14 131.193 13.1234 131.193 11.9745V11.975Z" fill="#0D1926"/>
<path d="M52.9492 22.6198H55.3968V23.1638C55.9863 22.7096 56.7271 22.4686 57.5432 22.4686C59.4178 22.4686 60.733 23.7987 60.733 25.6884V30.6163H58.284V26.0208C58.284 25.1439 57.7095 24.5698 56.8326 24.5698C56.2131 24.5698 55.7294 24.7969 55.3968 25.2045V30.6163H52.9492V22.6198Z" fill="#0D1926"/>
<path d="M61.8223 26.6254C61.8223 24.2976 63.6515 22.4838 65.9944 22.4838C68.3373 22.4838 70.0318 24.3278 70.0318 26.8522V27.4578H64.3312C64.6484 28.2148 65.3741 28.7276 66.2962 28.7276C66.9613 28.7276 67.5208 28.5159 67.8985 28.122L69.5162 29.558C68.5034 30.4046 67.5056 30.7674 66.1753 30.7674C63.7266 30.7674 61.8223 28.9534 61.8223 26.6254ZM67.626 25.7487C67.3691 24.9779 66.734 24.479 65.9482 24.479C65.1319 24.479 64.5273 24.9476 64.2853 25.7487H67.626Z" fill="#0D1926"/>
<path d="M71.1782 22.6198H73.6271V23.4207C74.157 22.7861 74.8666 22.4384 75.728 22.4384C76.1969 22.4532 76.4386 22.4987 76.6503 22.6349V24.7662C76.3326 24.6148 75.9097 24.5244 75.4863 24.5244C75.1159 24.5214 74.7508 24.6128 74.4255 24.79C74.1002 24.9673 73.8254 25.2244 73.6271 25.5373V30.6163H71.1782V22.6198Z" fill="#0D1926"/>
<path d="M78.1464 33.1558L78.9627 31.2512C79.8245 31.6592 80.6708 31.8568 81.5171 31.8568C82.6663 31.8568 83.2557 31.3879 83.2557 30.4661V30.0119C82.6447 30.4265 81.9232 30.6477 81.1848 30.6468C78.9171 30.6468 77.1184 28.8479 77.1184 26.5655C77.1184 24.298 78.9476 22.5143 81.2754 22.5143C82.0011 22.5143 82.6963 22.696 83.2858 23.0442V22.6198H85.7046V30.4952C85.7046 32.6567 84.2383 33.8512 81.5626 33.8512C80.2779 33.851 79.0987 33.6092 78.1464 33.1558ZM83.2557 28.0011V25.1749C82.8323 24.8121 82.258 24.5852 81.6231 24.5852C80.4439 24.5852 79.5222 25.4469 79.5222 26.5655C79.5222 27.7144 80.4291 28.591 81.608 28.591C82.2731 28.5905 82.8323 28.394 83.2557 28.0011Z" fill="#0D1926"/>
<path d="M87.0947 20.5337C87.0947 20.2676 87.1736 20.0075 87.3215 19.7862C87.4693 19.5649 87.6794 19.3925 87.9253 19.2907C88.1711 19.1888 88.4417 19.1622 88.7027 19.2141C88.9637 19.266 89.2034 19.3941 89.3916 19.5823C89.5797 19.7705 89.7079 20.0102 89.7598 20.2712C89.8117 20.5322 89.7851 20.8027 89.6832 21.0486C89.5814 21.2944 89.4089 21.5046 89.1877 21.6524C88.9664 21.8002 88.7063 21.8791 88.4402 21.8791C88.0836 21.8783 87.7418 21.7363 87.4897 21.4842C87.2375 21.232 87.0955 20.8903 87.0947 20.5337ZM87.2156 22.6197H89.6645V30.6163H87.2156V22.6197Z" fill="#0D1926"/>
<path d="M90.8129 26.6254C90.8129 24.2976 92.6421 22.4838 94.9851 22.4838C97.328 22.4838 99.0212 24.3278 99.0212 26.8522V27.4578H93.3224C93.6396 28.2148 94.3653 28.7276 95.2873 28.7276C95.9525 28.7276 96.5119 28.5159 96.8897 28.122L98.5074 29.558C97.4945 30.4046 96.4968 30.7674 95.1665 30.7674C92.7178 30.7674 90.8129 28.9534 90.8129 26.6254ZM96.6167 25.7487C96.3598 24.9779 95.7246 24.479 94.9389 24.479C94.1226 24.479 93.518 24.9476 93.276 25.7487H96.6167Z" fill="#0D1926"/>
<path d="M99.4435 29.3766C99.4435 29.0985 99.5259 28.8266 99.6804 28.5954C99.8349 28.3641 100.054 28.1839 100.311 28.0774C100.568 27.971 100.851 27.9431 101.124 27.9973C101.397 28.0516 101.647 28.1855 101.844 28.3821C102.04 28.5788 102.174 28.8294 102.229 29.1021C102.283 29.3749 102.255 29.6576 102.149 29.9145C102.042 30.1715 101.862 30.391 101.631 30.5455C101.399 30.7 101.127 30.7824 100.849 30.7824C100.477 30.7804 100.121 30.6317 99.8574 30.3685C99.5942 30.1053 99.4455 29.7488 99.4435 29.3766Z" fill="#0D1926"/>
<path d="M103.495 22.6198H105.943V23.1638C106.533 22.7096 107.274 22.4686 108.09 22.4686C109.964 22.4686 111.28 23.7987 111.28 25.6884V30.6163H108.832V26.0208C108.832 25.1439 108.258 24.5698 107.381 24.5698C106.761 24.5698 106.278 24.7969 105.945 25.2045V30.6163H103.496L103.495 22.6198Z" fill="#0D1926"/>
<path d="M112.594 27.5476V22.6198H115.043V27.215C115.043 28.0917 115.618 28.6662 116.494 28.6662C117.114 28.6662 117.598 28.4391 117.93 28.0311V22.6198H120.379V30.6163H117.93V30.072C117.341 30.5262 116.6 30.7674 115.784 30.7674C113.909 30.7674 112.594 29.4371 112.594 27.5476Z" fill="#0D1926"/>
</g>
<defs>
<linearGradient id="paint0_linear_101_608" x1="5.09438" y1="30.4061" x2="29.5306" y2="5.96991" gradientUnits="userSpaceOnUse">
<stop stop-color="#32E14B"/>
<stop offset="0.22" stop-color="#23CF7F"/>
<stop offset="0.49" stop-color="#14BCB6"/>
<stop offset="0.71" stop-color="#09AEDE"/>
<stop offset="0.89" stop-color="#02A6F6"/>
<stop offset="1" stop-color="#00A3FF"/>
</linearGradient>
<linearGradient id="paint1_linear_101_608" x1="5.09416" y1="30.4058" x2="29.5301" y2="5.96963" gradientUnits="userSpaceOnUse">
<stop stop-color="#32E14B"/>
<stop offset="0.22" stop-color="#23CF7F"/>
<stop offset="0.49" stop-color="#14BCB6"/>
<stop offset="0.71" stop-color="#09AEDE"/>
<stop offset="0.89" stop-color="#02A6F6"/>
<stop offset="1" stop-color="#00A3FF"/>
</linearGradient>
<clipPath id="clip0_101_608">
<rect width="133.596" height="35" fill="white" transform="translate(0 0.5)"/>
</clipPath>
</defs>
</svg>
