<svg width="16" height="16" viewBox="0 0 16 16" fill="none" xmlns="http://www.w3.org/2000/svg">
<path d="M2.66666 14.6666C2.29999 14.6666 1.98622 14.5362 1.72533 14.2753C1.46399 14.014 1.33333 13.7 1.33333 13.3333V6.66665C1.33333 6.29998 1.46399 5.98598 1.72533 5.72465C1.98622 5.46376 2.29999 5.33331 2.66666 5.33331H3.99999V1.33331H9.33333V3.99998H5.33333V9.33331H6.66666V5.33331H13.3333C13.7 5.33331 14.014 5.46376 14.2753 5.72465C14.5362 5.98598 14.6667 6.29998 14.6667 6.66665V13.3333C14.6667 13.7 14.5362 14.014 14.2753 14.2753C14.014 14.5362 13.7 14.6666 13.3333 14.6666H2.66666Z" fill="#00304A"/>
</svg>
