<svg xmlns="http://www.w3.org/2000/svg" width="32" height="22" fill="none"><rect id="backgroundrect" width="100%" height="100%" x="0" y="0" fill="none" stroke="none"/>

<defs>
<linearGradient id="paint0_linear_101_1054" x1="0.031583428382873535" y1="0.9684454311024059" x2="0.6238468885421753" y2="-0.2846445387059992">
<stop stop-color="#23CF7F"/>
<stop offset="0.244792" stop-color="#14BCB6"/>
<stop offset="0.541667" stop-color="#09AEDE"/>
<stop offset="0.729167" stop-color="#02A6F6"/>
<stop offset="1" stop-color="#00A3FF"/>
</linearGradient>
</defs>
<g class="currentLayer" style=""><title>Layer 1</title><g opacity="0.2" id="svg_1" class="">
<path d="M22,10 H28 V4 H22 V10 zM4,10 H10 V4 H4 V10 zM26.35,22 C25.35,22 24.5833,21.5753 24.049999999999997,20.726 C23.5167,19.8753 23.4833,19 23.95,18.1 L26,14 H22 C20.9,14 19.9587,13.608 19.176,12.824 C18.392,12.0413 18,11.1 18,10 V4 C18,2.9 18.392,1.9586700000000001 19.176,1.176 C19.9587,0.39200000000000007 20.9,0 22,0 H28 C29.1,0 30.042,0.39200000000000007 30.826,1.176 C31.6087,1.9586700000000001 32,2.9 32,4 V13.05 C32,13.35 31.9747,13.6587 31.924,13.975999999999999 C31.874699999999997,14.292 31.7667,14.5833 31.6,14.85 L28.75,20.5 C28.5167,20.9667 28.183300000000003,21.3333 27.75,21.6 C27.316699999999997,21.8667 26.85,22 26.35,22 zM8.350000000000001,22 C7.35,22 6.5832999999999995,21.5753 6.050000000000001,20.726 C5.5167,19.8753 5.4833,19 5.949999999999999,18.1 L8,14 H4 C2.9000000000000004,14 1.9586699999999997,13.608 1.1760000000000002,12.824 C0.39199999999999946,12.0413 0,11.1 0,10 V4 C0,2.9 0.39199999999999946,1.9586700000000001 1.1760000000000002,1.176 C1.9586699999999997,0.39200000000000007 2.9000000000000004,0 4,0 H10 C11.100000000000001,0 12.042000000000002,0.39200000000000007 12.826,1.176 C13.608699999999999,1.9586700000000001 14,2.9 14,4 V13.05 C14,13.35 13.9753,13.6587 13.925999999999998,13.975999999999999 C13.8753,14.292 13.7667,14.5833 13.600000000000001,14.85 L10.75,20.5 C10.5167,20.9667 10.1833,21.3333 9.75,21.6 C9.3167,21.8667 8.850000000000001,22 8.350000000000001,22 zM4,10 V4 H10 V10 H4 zM22,10 V4 H28 V10 H22 z" fill="url(#paint0_linear_101_1054)" id="svg_2"/>
</g></g></svg>