<svg xmlns="http://www.w3.org/2000/svg" width="23" height="17" fill="none"><rect id="backgroundrect" width="100%" height="100%" x="0" y="0" fill="none" stroke="none"/>

<defs>
<clipPath id="clip0_101_663">
<rect width="24" height="24" fill="white" y="0" x="0.7979739904403687" id="svg_1"/>
</clipPath>
</defs>
<g class="currentLayer" style=""><title>Layer 1</title><g clip-path="url(#clip0_101_663)" id="svg_2" class="">
<path opacity="0.2" d="M8.249999943466186,7.5 C4.106249943466187,7.5 0.7499999434661868,5.99062 0.7499999434661868,4.125 C0.7499999434661868,2.25938 4.106249943466187,0.75 8.249999943466186,0.75 C12.393729943466187,0.75 15.750029943466188,2.25938 15.750029943466188,4.125 C15.750029943466188,5.99062 12.393729943466187,7.5 8.249999943466186,7.5 zM15.750029943466188,5.315620000000001 V7.875 C15.750029943466188,9.5625 13.012529943466186,10.9594 9.421829943466186,11.2125 C10.725029943466186,11.7 12.412529943466186,12 14.250029943466187,12 C18.393729943466187,12 21.75002994346619,10.4906 21.75002994346619,8.625 C21.75002994346619,6.9938 19.171829943466186,5.6343700000000005 15.750029943466188,5.315620000000001 z" fill="#00A89E" id="svg_3"/>
<path d="M16.500029943466185,4.65 V4.125 C16.500029943466185,1.7718699999999998 12.956229943466187,0 8.249999943466186,0 C3.543749943466187,0 -5.653381340842145e-8,1.7718699999999998 -5.653381340842145e-8,4.125 V7.875 C-5.653381340842145e-8,9.8344 2.4562499434661866,11.3906 5.999999943466187,11.8594 V12.375 C5.999999943466187,14.728100000000001 9.543729943466186,16.5 14.250029943466187,16.5 C18.956229943466187,16.5 22.500029943466185,14.728100000000001 22.500029943466185,12.375 V8.625 C22.500029943466185,6.6844 20.118729943466185,5.128120000000001 16.500029943466185,4.65 zM21.00002994346619,8.625 C21.00002994346619,9.8625 18.112529943466186,11.25 14.250029943466187,11.25 C13.903129943466187,11.25 13.556229943466187,11.2406 13.209329943466187,11.2125 C15.234329943466186,10.4813 16.500029943466185,9.2812 16.500029943466185,7.875 V6.159369999999999 C19.303129943466185,6.581200000000001 21.00002994346619,7.7156 21.00002994346619,8.625 zM5.999999943466187,10.3312 V8.1094 C6.746139943466186,8.2053 7.497739943466186,8.2522 8.249999943466186,8.25 C9.002229943466187,8.2522 9.753829943466187,8.2053 10.500029943466187,8.1094 V10.3312 C9.755729943466186,10.4472 9.003329943466186,10.5037 8.249999943466186,10.5 C7.496709943466186,10.5037 6.744319943466186,10.4472 5.999999943466187,10.3312 zM15.000029943466188,6.553100000000001 V7.875 C15.000029943466188,8.6625 13.837529943466187,9.5062 12.000029943466187,10.0219 V7.828099999999999 C13.209329943466187,7.5375 14.231229943466186,7.0969 15.000029943466188,6.553100000000001 zM8.249999943466186,1.5 C12.112529943466187,1.5 15.000029943466188,2.8875 15.000029943466188,4.125 C15.000029943466188,5.362500000000001 12.112529943466187,6.75 8.249999943466186,6.75 C4.387499943466187,6.75 1.4999999434661864,5.362500000000001 1.4999999434661864,4.125 C1.4999999434661864,2.8875 4.387499943466187,1.5 8.249999943466186,1.5 zM1.4999999434661864,7.875 V6.553100000000001 C2.2687499434661866,7.0969 3.290629943466187,7.5375 4.499999943466187,7.828099999999999 V10.0219 C2.6624999434661865,9.5062 1.4999999434661864,8.6625 1.4999999434661864,7.875 zM7.499999943466186,12.375 V11.981300000000001 L8.249999943466186,12 C8.618729943466187,12 8.975029943466186,11.9906 9.318729943466186,11.9719 C9.693729943466186,12.1031 10.087529943466187,12.2156 10.500029943466187,12.3187 V14.521899999999999 C8.662529943466186,14.0062 7.499999943466186,13.162500000000001 7.499999943466186,12.375 zM12.000029943466187,14.831199999999999 V12.600000000000001 C12.746029943466187,12.6979 13.497529943466187,12.748000000000001 14.250029943466187,12.75 C15.002229943466187,12.752199999999998 15.753829943466187,12.705300000000001 16.500029943466185,12.6094 V14.831199999999999 C15.008429943466187,15.0562 13.491529943466187,15.0562 12.000029943466187,14.831199999999999 zM18.00002994346619,14.521899999999999 V12.3281 C19.209329943466187,12.0375 20.231229943466186,11.5969 21.00002994346619,11.0531 V12.375 C21.00002994346619,13.162500000000001 19.837529943466187,14.0062 18.00002994346619,14.521899999999999 z" fill="#00A89E" id="svg_4"/>
</g></g></svg>