<svg xmlns="http://www.w3.org/2000/svg" width="20" height="20" fill="none"><rect id="backgroundrect" width="100%" height="100%" x="0" y="0" fill="none" stroke="none"/>

<g class="currentLayer" style=""><title>Layer 1</title><path d="M9.750001192092896,0 C7.821601192092896,0 5.936571192092895,0.5718300000000003 4.333191192092896,1.64317 C2.7298211920928956,2.7145099999999998 1.4801311920928955,4.23726 0.7421811920928953,6.018840000000001 C0.00422119209289562,7.8004 -0.18885880790710452,9.7608 0.1873511920928954,11.6521 C0.5635511920928957,13.5434 1.4921511920928956,15.2807 2.8557111920928957,16.6443 C4.219281192092896,18.0079 5.956561192092895,18.9365 7.847901192092895,19.3127 C9.739201192092896,19.6889 11.699601192092896,19.4958 13.481201192092895,18.7578 C15.262701192092894,18.0199 16.785501192092894,16.7702 17.856801192092895,15.166799999999999 C18.928201192092896,13.5634 19.500001192092896,11.6784 19.500001192092896,9.75 C19.495001192092897,7.165660000000001 18.466201192092896,4.68859 16.638801192092895,2.86118 C14.811401192092895,1.0337800000000001 12.334301192092896,0.0049600000000000755 9.750001192092896,0 zM14.390601192092895,8.043800000000001 L8.896901192092896,13.293800000000001 C8.754901192092895,13.4274 8.566901192092896,13.5012 8.371901192092896,13.5 C8.276601192092896,13.5014 8.181901192092896,13.4838 8.093401192092896,13.4484 C8.004901192092895,13.413 7.924301192092896,13.3605 7.856301192092895,13.293800000000001 L5.109381192092895,10.668800000000001 C5.033191192092896,10.6023 4.971231192092896,10.5211 4.927221192092896,10.4301 C4.883211192092896,10.339 4.8580611920928956,10.24 4.853281192092895,10.139 C4.848501192092895,10.0381 4.864191192092895,9.9371 4.899411192092895,9.8424 C4.934631192092896,9.7476 4.988651192092895,9.6609 5.058221192092896,9.5875 C5.127801192092895,9.5142 5.211491192092896,9.4556 5.304261192092896,9.4154 C5.3970311920928955,9.3752 5.496981192092895,9.3542 5.5980911920928955,9.3536 C5.699191192092895,9.353 5.799381192092895,9.3729 5.892611192092895,9.412 C5.985851192092895,9.4511 6.070211192092895,9.508700000000001 6.140631192092895,9.5812 L8.371901192092896,11.7094 L13.359401192092896,6.956250000000001 C13.505201192092896,6.82902 13.694601192092895,6.76309 13.887901192092894,6.77223 C14.081201192092895,6.78138 14.263501192092896,6.8649000000000004 14.396701192092895,7.005330000000001 C14.529801192092897,7.145759999999999 14.603601192092896,7.3322199999999995 14.602401192092895,7.52575 C14.601301192092894,7.7192799999999995 14.525401192092897,7.9049 14.390601192092895,8.043800000000001 z" fill="#23CF7F" id="svg_1" class=""/></g></svg>