<svg xmlns="http://www.w3.org/2000/svg" width="16" height="20" fill="none"><rect id="backgroundrect" width="100%" height="100%" x="0" y="0" fill="none" stroke="none"/>


<g class="currentLayer" style=""><title>Layer 1</title><path opacity="0.2" d="M15.749949873352051,3.0013400316238403 V18.75134003162384 C15.749949873352051,18.950240031623842 15.67094987335205,19.14104003162384 15.530349873352051,19.28164003162384 C15.389649873352052,19.42234003162384 15.19894987335205,19.50134003162384 14.999949873352051,19.50134003162384 H1.499999873352051 C1.3010798733520508,19.50134003162384 1.1103198733520507,19.42234003162384 0.9696698733520508,19.28164003162384 C0.8290198733520509,19.14104003162384 0.749999873352051,18.950240031623842 0.749999873352051,18.75134003162384 V3.0013400316238403 C0.749999873352051,2.8024300316238406 0.8290198733520509,2.61166003162384 0.9696698733520508,2.4710100316238406 C1.1103198733520507,2.33036003162384 1.3010798733520508,2.2513400316238403 1.499999873352051,2.2513400316238403 H5.249999873352051 C4.76315987335205,2.9004500316238406 4.499999873352051,3.68995003162384 4.499999873352051,4.50134003162384 V5.25134003162384 H11.999949873352051 V4.50134003162384 C11.999949873352051,3.68995003162384 11.73684987335205,2.9004500316238406 11.249949873352051,2.2513400316238403 H14.999949873352051 C15.19894987335205,2.2513400316238403 15.389649873352052,2.33036003162384 15.530349873352051,2.4710100316238406 C15.67094987335205,2.61166003162384 15.749949873352051,2.8024300316238406 15.749949873352051,3.0013400316238403 z" fill="#00A89E" id="svg_1" class=""/><path d="M11.999949873352051,12.75134003162384 C11.999949873352051,12.95024003162384 11.92094987335205,13.14094003162384 11.780349873352051,13.28164003162384 C11.63964987335205,13.42234003162384 11.448949873352051,13.50134003162384 11.249949873352051,13.50134003162384 H5.249999873352051 C5.051089873352051,13.50134003162384 4.860319873352051,13.42234003162384 4.719669873352052,13.28164003162384 C4.579009873352051,13.14094003162384 4.499999873352051,12.95024003162384 4.499999873352051,12.75134003162384 C4.499999873352051,12.55244003162384 4.579009873352051,12.36164003162384 4.719669873352052,12.22094003162384 C4.860319873352051,12.080340031623841 5.051089873352051,12.00134003162384 5.249999873352051,12.00134003162384 H11.249949873352051 C11.448949873352051,12.00134003162384 11.63964987335205,12.080340031623841 11.780349873352051,12.22094003162384 C11.92094987335205,12.36164003162384 11.999949873352051,12.55244003162384 11.999949873352051,12.75134003162384 zM11.249949873352051,9.00134003162384 H5.249999873352051 C5.051089873352051,9.00134003162384 4.860319873352051,9.080340031623841 4.719669873352052,9.22094003162384 C4.579009873352051,9.36164003162384 4.499999873352051,9.55244003162384 4.499999873352051,9.75134003162384 C4.499999873352051,9.95024003162384 4.579009873352051,10.14094003162384 4.719669873352052,10.28164003162384 C4.860319873352051,10.42234003162384 5.051089873352051,10.50134003162384 5.249999873352051,10.50134003162384 H11.249949873352051 C11.448949873352051,10.50134003162384 11.63964987335205,10.42234003162384 11.780349873352051,10.28164003162384 C11.92094987335205,10.14094003162384 11.999949873352051,9.95024003162384 11.999949873352051,9.75134003162384 C11.999949873352051,9.55244003162384 11.92094987335205,9.36164003162384 11.780349873352051,9.22094003162384 C11.63964987335205,9.080340031623841 11.448949873352051,9.00134003162384 11.249949873352051,9.00134003162384 zM16.49994987335205,3.0013100316238406 V18.75134003162384 C16.49994987335205,19.14914003162384 16.34194987335205,19.53064003162384 16.06064987335205,19.81194003162384 C15.77934987335205,20.09324003162384 15.397849873352051,20.25134003162384 14.999949873352051,20.25134003162384 H1.499999873352051 C1.102169873352051,20.25134003162384 0.7206398733520505,20.09324003162384 0.4393398733520506,19.81194003162384 C0.1580298733520511,19.53064003162384 -1.2664794901695586e-7,19.14914003162384 -1.2664794901695586e-7,18.75134003162384 V3.0013100316238406 C-1.2664794901695586e-7,2.6034800316238407 0.1580298733520511,2.2219500316238405 0.4393398733520506,1.9406500316238402 C0.7206398733520505,1.6593400316238403 1.102169873352051,1.5013100316238406 1.499999873352051,1.5013100316238406 H4.9031198733520505 C5.323529873352051,1.0291400316238404 5.839049873352051,0.6512700316238402 6.4159498733520515,0.3925200316238404 C6.99274987335205,0.13377003162384038 7.61774987335205,3.1623840435202055e-8 8.249949873352051,3.1623840435202055e-8 C8.88224987335205,3.1623840435202055e-8 9.50724987335205,0.13377003162384038 10.08404987335205,0.3925200316238404 C10.66094987335205,0.6512700316238402 11.17644987335205,1.0291400316238404 11.59684987335205,1.5013100316238406 H14.999949873352051 C15.397849873352051,1.5013100316238406 15.77934987335205,1.6593400316238403 16.06064987335205,1.9406500316238402 C16.34194987335205,2.2219500316238405 16.49994987335205,2.6034800316238407 16.49994987335205,3.0013100316238406 zM5.249999873352051,4.501310031623841 H11.249949873352051 C11.249949873352051,3.7056600316238404 10.93394987335205,2.94260003162384 10.37134987335205,2.3799900316238407 C9.80874987335205,1.8173800316238404 9.045649873352051,1.5013100316238406 8.249949873352051,1.5013100316238406 C7.454349873352051,1.5013100316238406 6.691249873352051,1.8173800316238404 6.128649873352051,2.3799900316238407 C5.566069873352051,2.94260003162384 5.249999873352051,3.7056600316238404 5.249999873352051,4.501310031623841 zM14.999949873352051,3.0013100316238406 H12.487449873352052 C12.661049873352052,3.4823800316238405 12.749849873352051,3.98990003162384 12.749949873352051,4.501310031623841 V5.251310031623841 C12.749949873352051,5.45022003162384 12.67094987335205,5.64099003162384 12.530349873352051,5.781640031623841 C12.389649873352052,5.922290031623841 12.19894987335205,6.001310031623841 11.999949873352051,6.001310031623841 H4.499999873352051 C4.301089873352051,6.001310031623841 4.110319873352051,5.922290031623841 3.9696698733520517,5.781640031623841 C3.829019873352051,5.64099003162384 3.749999873352051,5.45022003162384 3.749999873352051,5.251310031623841 V4.501310031623841 C3.7501598733520503,3.98990003162384 3.8389698733520508,3.4823800316238405 4.01249987335205,3.0013100316238406 H1.499999873352051 V18.75134003162384 H14.999949873352051 V3.0013100316238406 z" fill="#00A89E" id="svg_2" class=""/></g></svg>