<svg xmlns="http://www.w3.org/2000/svg" width="19" height="19" fill="none"><rect id="backgroundrect" width="100%" height="100%" x="0" y="0" fill="none" stroke="none"/>


<g class="currentLayer" style=""><title>Layer 1</title><path opacity="0.2" d="M9.374999523162842,18 C14.138499523162842,18 17.999999523162842,14.1385 17.999999523162842,9.375 C17.999999523162842,4.61154 14.138499523162842,0.75 9.374999523162842,0.75 C4.6115395231628415,0.75 0.7499995231628418,4.61154 0.7499995231628418,9.375 C0.7499995231628418,14.1385 4.6115395231628415,18 9.374999523162842,18 z" fill="#00A89E" id="svg_1" class=""/><path d="M9.374999523162842,0 C7.520799523162841,0 5.708239523162842,0.54983 4.166529523162842,1.5799700000000003 C2.6248195231628415,2.6101099999999997 1.4232095231628419,4.07429 0.713629523162842,5.78734 C0.004059523162841749,7.500400000000001 -0.18159047683715812,9.3854 0.18013952316284199,11.204 C0.5418795231628417,13.0225 1.4347595231628416,14.693000000000001 2.7458795231628415,16.0041 C4.056999523162842,17.3152 5.7274595231628425,18.2081 7.545999523162841,18.5699 C9.364599523162841,18.9316 11.249599523162843,18.7459 12.962699523162842,18.0364 C14.67569952316284,17.3268 16.139899523162843,16.1252 17.169999523162844,14.5835 C18.20019952316284,13.0418 18.749999523162842,11.2292 18.749999523162842,9.375 C18.744999523162843,6.89012 17.755699523162843,4.50843 15.998699523162841,2.7513500000000004 C14.241599523162844,0.9942700000000002 11.859899523162841,0.00495000000000001 9.374999523162842,0 zM10.124999523162842,17.2125 V14.25 C10.124999523162842,14.051100000000002 10.045999523162841,13.860299999999999 9.905299523162842,13.7197 C9.764699523162841,13.579 9.573899523162842,13.5 9.374999523162842,13.5 C9.176099523162842,13.5 8.985299523162842,13.579 8.844699523162841,13.7197 C8.703999523162842,13.860299999999999 8.624999523162842,14.051100000000002 8.624999523162842,14.25 V17.2125 C6.805709523162841,17.0345 5.104589523162842,16.2306 3.8120095231628417,14.937999999999999 C2.5194295231628416,13.645399999999999 1.7155195231628415,11.9443 1.5374995231628414,10.125 H4.499999523162842 C4.698919523162842,10.125 4.889679523162842,10.046 5.030329523162842,9.9053 C5.1709895231628416,9.7647 5.249999523162842,9.5739 5.249999523162842,9.375 C5.249999523162842,9.1761 5.1709895231628416,8.9853 5.030329523162842,8.8447 C4.889679523162842,8.704 4.698919523162842,8.625 4.499999523162842,8.625 H1.5374995231628414 C1.7155195231628415,6.8057099999999995 2.5194295231628416,5.10459 3.8120095231628417,3.81201 C5.104589523162842,2.51943 6.805709523162841,1.7155199999999997 8.624999523162842,1.5374999999999996 V4.5 C8.624999523162842,4.69891 8.703999523162842,4.88968 8.844699523162841,5.03033 C8.985299523162842,5.17098 9.176099523162842,5.25 9.374999523162842,5.25 C9.573899523162842,5.25 9.764699523162841,5.17098 9.905299523162842,5.03033 C10.045999523162841,4.88968 10.124999523162842,4.69891 10.124999523162842,4.5 V1.5374999999999996 C11.944299523162842,1.7155199999999997 13.64539952316284,2.51943 14.93799952316284,3.81201 C16.23059952316284,5.10459 17.034499523162843,6.8057099999999995 17.21249952316284,8.625 H14.249999523162842 C14.051099523162843,8.625 13.86029952316284,8.704 13.719699523162841,8.8447 C13.578999523162842,8.9853 13.499999523162842,9.1761 13.499999523162842,9.375 C13.499999523162842,9.5739 13.578999523162842,9.7647 13.719699523162841,9.9053 C13.86029952316284,10.046 14.051099523162843,10.125 14.249999523162842,10.125 H17.21249952316284 C17.034499523162843,11.9443 16.23059952316284,13.645399999999999 14.93799952316284,14.937999999999999 C13.64539952316284,16.2306 11.944299523162842,17.0345 10.124999523162842,17.2125 z" fill="#00A89E" id="svg_2" class=""/></g></svg>