<svg xmlns="http://www.w3.org/2000/svg" width="11" height="8" fill="none"><rect id="backgroundrect" width="100%" height="100%" x="0" y="0" fill="none" stroke="none"/>

<defs>
<clipPath id="clip0_101_650">
<rect width="12" height="12" fill="white" y="0" x="0.5959470272064209" id="svg_1"/>
</clipPath>
</defs>
<g class="currentLayer" style=""><title>Layer 1</title><g clip-path="url(#clip0_101_650)" id="svg_2" class="">
<path opacity="0.2" d="M5.623903982353211,0.375 C1.8739039823532107,0.375 0.37390398235321065,3.75 0.37390398235321065,3.75 C0.37390398235321065,3.75 1.8739039823532107,7.125 5.623903982353211,7.125 C9.37385398235321,7.125 10.87385398235321,3.75 10.87385398235321,3.75 C10.87385398235321,3.75 9.37385398235321,0.375 5.623903982353211,0.375 zM5.623903982353211,5.625 C5.25306398235321,5.625 4.890553982353211,5.51503 4.58220398235321,5.30901 C4.273863982353211,5.1029800000000005 4.03354398235321,4.81014 3.8916239823532104,4.46753 C3.74971398235321,4.12492 3.7125839823532107,3.7479199999999997 3.7849239823532104,3.3842100000000004 C3.8572739823532105,3.0204899999999997 4.035853982353211,2.6864 4.298073982353211,2.42417 C4.5603039823532106,2.16195 4.89439398235321,1.9833699999999999 5.2581039823532105,1.9110300000000002 C5.62182398235321,1.83868 5.99882398235321,1.8758100000000004 6.341433982353211,2.0177300000000002 C6.68404398235321,2.1596399999999996 6.97688398235321,2.39996 7.18290398235321,2.70831 C7.38893398235321,3.0166500000000003 7.498903982353211,3.3791599999999997 7.498903982353211,3.75 C7.498903982353211,4.24728 7.301353982353211,4.72419 6.949723982353211,5.07583 C6.598093982353211,5.42746 6.121183982353211,5.625 5.623903982353211,5.625 z" fill="#AFB2B5" id="svg_3"/>
<path d="M11.21615398235321,3.5999999999999996 C11.20205398235321,3.5625 10.803653982353211,2.6812500000000004 9.922353982353211,1.7953099999999997 C8.74580398235321,0.62344 7.25986398235321,0 5.623923982353211,0 C3.9879939823532107,0 2.5020539823532104,0.62344 1.3254939823532106,1.7953099999999997 C0.4442439823532105,2.6812500000000004 0.04580398235321037,3.5625 0.03174398235321041,3.5999999999999996 C0.010811982353210459,3.64724 -1.7646789585157308e-8,3.6983300000000003 -1.7646789585157308e-8,3.75 C-1.7646789585157308e-8,3.8016699999999997 0.010811982353210459,3.85276 0.03174398235321041,3.9000000000000004 C0.04580398235321037,3.9375 0.4442439823532105,4.81875 1.3254939823532106,5.70469 C2.5020539823532104,6.87656 3.9879939823532107,7.5 5.623923982353211,7.5 C7.25986398235321,7.5 8.74580398235321,6.87656 9.922353982353211,5.70469 C10.803653982353211,4.81875 11.20205398235321,3.9375 11.21615398235321,3.9000000000000004 C11.23705398235321,3.85276 11.247853982353211,3.8016699999999997 11.247853982353211,3.75 C11.247853982353211,3.6983300000000003 11.23705398235321,3.64724 11.21615398235321,3.5999999999999996 zM5.623923982353211,6.75 C4.18017398235321,6.75 2.9192439823532106,6.225 1.8786139823532104,5.1890600000000004 C1.4485539823532103,4.76552 1.0836439823532102,4.2805599999999995 0.7958039823532106,3.75 C1.0832539823532104,3.21779 1.4481739823532105,2.73123 1.8786139823532104,2.3062500000000004 C2.9192439823532106,1.275 4.18017398235321,0.75 5.623923982353211,0.75 C7.067673982353211,0.75 8.328613982353211,1.275 9.36925398235321,2.3062500000000004 C9.79965398235321,2.73123 10.16455398235321,3.21779 10.45205398235321,3.75 C10.114553982353211,4.38281 8.64267398235321,6.75 5.623923982353211,6.75 z" fill="#AFB2B5" id="svg_4"/>
<path d="M5.623903982353211,1.5 C5.178893982353211,1.5 4.743883982353211,1.6319600000000003 4.373873982353211,1.8791900000000004 C4.003853982353211,2.12643 3.7154739823532106,2.47783 3.5451739823532105,2.88896 C3.3748739823532103,3.3001000000000005 3.3303139823532106,3.7525000000000004 3.41713398235321,4.18895 C3.5039539823532104,4.6254100000000005 3.7182439823532105,5.02632 4.03291398235321,5.34099 C4.3475839823532105,5.65566 4.74849398235321,5.869949999999999 5.1849539823532105,5.956770000000001 C5.62140398235321,6.04358 6.07380398235321,5.999029999999999 6.484943982353211,5.82873 C6.896073982353211,5.65843 7.24747398235321,5.37004 7.49470398235321,5.00003 C7.741943982353211,4.63002 7.873903982353211,4.19501 7.873903982353211,3.75 C7.873903982353211,3.1532600000000004 7.636853982353211,2.5809699999999998 7.21489398235321,2.1590100000000003 C6.792933982353211,1.73705 6.22064398235321,1.5 5.623903982353211,1.5 zM5.623903982353211,5.25 C5.327233982353211,5.25 5.03722398235321,5.16203 4.790543982353211,4.9972 C4.543873982353211,4.83238 4.351613982353211,4.59811 4.238083982353211,4.32402 C4.124553982353211,4.04994 4.09484398235321,3.74834 4.15272398235321,3.4573599999999995 C4.21060398235321,3.16639 4.353463982353211,2.89912 4.56324398235321,2.6893399999999996 C4.773023982353211,2.47956 5.0402939823532105,2.3367000000000004 5.33126398235321,2.2788199999999996 C5.622233982353211,2.2209399999999997 5.9238339823532105,2.2506500000000003 6.197923982353211,2.36418 C6.472013982353211,2.47771 6.70628398235321,2.66997 6.87110398235321,2.91664 C7.035923982353211,3.1633199999999997 7.123903982353211,3.4533300000000002 7.123903982353211,3.75 C7.12266398235321,4.1474400000000005 6.9642339823532105,4.5282599999999995 6.6831939823532105,4.80929 C6.40216398235321,5.09033 6.02134398235321,5.24876 5.623903982353211,5.25 z" fill="#AFB2B5" id="svg_5"/>
</g></g></svg>