<svg width="128" height="40" viewBox="0 0 128 40" fill="none" xmlns="http://www.w3.org/2000/svg">
<g clip-path="url(#clip0_42_2472)">
<path d="M52.8605 25.9588C52.6428 25.9765 52.4075 25.9765 52.1722 25.9765H48.6134V30.5059H46.084V15.4883H52.1781C56.0193 15.4883 58.2252 17.353 58.2252 20.6118C58.2252 23.0177 57.1075 24.7118 55.1134 25.4824L58.4781 30.5H55.6016L52.8605 25.9588ZM52.1781 23.7059C54.4958 23.7059 55.8252 22.7177 55.8252 20.6824C55.8252 18.7118 54.4958 17.7647 52.1781 17.7647H48.6193V23.7059H52.1781Z" fill="#FDFDFD"/>
<path d="M63.1783 27.1118L61.743 30.5H59.1077L65.7371 15.4824H68.3312L74.8959 30.5H72.1959L70.7606 27.1118H63.1783ZM66.9547 18.1882L64.1253 24.8588H69.79L66.9547 18.1882Z" fill="#FDFDFD"/>
<path d="M82.5018 15.4882C87.0077 15.4882 90.2665 18.6412 90.2665 22.9941C90.2665 27.3294 86.9842 30.5 82.4371 30.5H76.3489V15.4824H82.5018V15.4882ZM78.8783 28.2294H82.5665C85.4842 28.2294 87.7136 26.0647 87.7136 23.0177C87.7136 19.9471 85.4195 17.7647 82.4606 17.7647H78.8783V28.2294Z" fill="#FDFDFD"/>
<path d="M92.4312 30.5059V15.4883H94.9606V30.5059H92.4312Z" fill="#FDFDFD"/>
<path d="M108.902 30.5059L100.902 19.7353V30.5059H98.3723V15.4883H100.861L108.902 26.2765V15.4883H111.39V30.5059H108.902Z" fill="#FDFDFD"/>
<path d="M127.302 23.1235V28.6588C125.778 29.8176 123.525 30.6118 121.466 30.6118C117.025 30.6118 113.572 27.2882 113.572 23C113.572 18.7118 117.066 15.4294 121.613 15.4294C123.76 15.4294 125.902 16.2471 127.384 17.5294L125.949 19.3941C124.79 18.3235 123.184 17.6765 121.613 17.6765C118.549 17.6765 116.143 20.0176 116.143 22.9941C116.143 26 118.566 28.3353 121.631 28.3353C122.749 28.3353 124.013 27.9471 125.084 27.3059V23.1235H127.302Z" fill="#FDFDFD"/>
<path d="M15.6723 21.2235L4.07227 35.2059H8.50168L16.5017 25.4823L17.2487 24.1823L15.6723 21.2235Z" fill="#FDFDFD"/>
<path d="M38.1253 6.12352L38.5371 4.99411H34.7194L18.6135 25.2059L20.8665 28.0882L19.7841 29.5588L38.1253 6.12352Z" fill="#FDFDFD"/>
<path d="M36.2075 5.90588L31.9722 4.48823L40.6486 -0.00588989L38.9192 9.03528L36.2075 5.90588Z" fill="#FDFDFD"/>
<path d="M15.6724 21.2294L13.5488 23.853L18.7194 31.0765L20.8665 28.0883L15.6724 21.2294Z" fill="#FDFDFD"/>
<path d="M11.7665 26.0059L0.166504 39.9882H4.59592L12.5959 30.2647L13.343 28.9647L11.7665 26.0059Z" fill="#FDFDFD"/>
<path d="M15.3899 12.9647L20.737 20.1118L22.9722 17.3823L19.6252 12.9647H15.3899ZM27.1311 22.8706L24.9017 25.6706L28.9487 31.0765H33.3487L27.1311 22.8706Z" fill="#FDFDFD"/>
<path d="M33.0017 15.4883L31.1899 17.7647H37.1605V30.5059H39.6958V17.7647H44.4546V15.4883H33.0017Z" fill="#FDFDFD"/>
<path d="M17.2076 37.0588C17.8547 36.9236 18.2253 36.4588 18.2253 35.8118C18.2253 34.9412 17.5547 34.4294 16.4429 34.4294H14.1135V39.9588H16.4841C17.7312 39.9588 18.4724 39.4 18.4724 38.4588C18.4665 37.6941 18.0018 37.1765 17.2076 37.0588ZM14.7429 35.0353H16.4076C17.1488 35.0353 17.5841 35.353 17.5841 35.9118C17.5841 36.4883 17.1488 36.8118 16.4076 36.8118H14.7429V35.0353ZM16.4076 39.353H14.7429V37.4118H16.4076C17.3076 37.4118 17.8312 37.7647 17.8312 38.3647C17.8312 39 17.3076 39.353 16.4076 39.353ZM25.2312 37.6824C25.2312 38.7588 24.6018 39.3824 23.5488 39.3824C22.4959 39.3824 21.8488 38.7588 21.8488 37.6824V34.4294H21.2194V37.6824C21.2194 39.1177 22.0959 39.9883 23.5488 39.9883C24.9959 39.9883 25.8606 39.1177 25.8606 37.6824V34.4294H25.2312V37.6824ZM29.4135 35.7765C29.4135 35.3118 29.8782 35.0412 30.59 35.0412C31.0312 35.0412 31.6194 35.1765 32.1135 35.5059L32.3841 34.9118C31.9253 34.6059 31.2724 34.4 30.6312 34.4C29.4841 34.4 28.7194 34.9588 28.7194 35.8294C28.7194 37.8118 31.8312 37.0353 31.8253 38.4883C31.8253 39.0177 31.3253 39.3412 30.5312 39.3412C29.9076 39.3412 29.2018 39.0588 28.69 38.5588L28.4076 39.1294C28.9312 39.6294 29.7194 39.9765 30.5253 39.9765C31.7076 39.9765 32.5253 39.3824 32.5253 38.4588C32.5253 36.4588 29.4135 37.2 29.4135 35.7765ZM35.3959 39.953H36.0253V34.4235H35.3959V39.953ZM43.2547 38.8706L39.9371 34.4235H39.2841V39.953H39.9135V35.5177L43.2312 39.953H43.8782V34.4235H43.2547V38.8706ZM47.7724 37.4588H50.5606V36.853H47.7724V35.0353H50.89V34.4294H47.1371V39.9588H50.99V39.353H47.7665V37.4588H47.7724ZM54.2841 35.7765C54.2841 35.3118 54.7488 35.0412 55.4606 35.0412C55.9018 35.0412 56.4841 35.1765 56.9841 35.5059L57.2547 34.9118C56.7959 34.6059 56.1429 34.4 55.5018 34.4C54.3547 34.4 53.59 34.9588 53.59 35.8294C53.59 37.8118 56.7018 37.0353 56.6959 38.4883C56.6959 39.0177 56.1959 39.3412 55.4018 39.3412C54.7782 39.3412 54.0724 39.0588 53.5606 38.5588L53.2782 39.1294C53.8018 39.6294 54.59 39.9765 55.3959 39.9765C56.5782 39.9765 57.3959 39.3824 57.3959 38.4588C57.3959 36.4588 54.2841 37.2 54.2841 35.7765ZM60.69 35.7765C60.69 35.3118 61.1547 35.0412 61.8665 35.0412C62.3076 35.0412 62.8959 35.1765 63.39 35.5059L63.6606 34.9118C63.2018 34.6059 62.5488 34.4 61.9076 34.4C60.7606 34.4 59.9959 34.9588 59.9959 35.8294C59.9959 37.8118 63.1077 37.0353 63.1018 38.4883C63.1018 39.0177 62.6018 39.3412 61.8076 39.3412C61.1841 39.3412 60.4782 39.0588 59.9665 38.5588L59.6841 39.1294C60.2076 39.6294 60.9959 39.9765 61.8018 39.9765C62.9841 39.9765 63.8018 39.3824 63.8018 38.4588C63.8018 36.4588 60.69 37.2 60.69 35.7765Z" fill="#FDFDFD"/>
<path d="M70.8428 35.7765C70.8428 35.3118 71.3075 35.0412 72.0193 35.0412C72.4604 35.0412 73.0428 35.1765 73.5428 35.5059L73.8134 34.9118C73.3546 34.6059 72.7016 34.4 72.0604 34.4C70.9134 34.4 70.1487 34.9588 70.1487 35.8294C70.1487 37.8118 73.2604 37.0353 73.2546 38.4883C73.2546 39.0177 72.7546 39.3412 71.9604 39.3412C71.3369 39.3412 70.631 39.0588 70.1193 38.5588L69.8369 39.1294C70.3604 39.6294 71.1487 39.9765 71.9546 39.9765C73.1369 39.9765 73.9546 39.3824 73.9546 38.4588C73.9546 36.4588 70.8428 37.2 70.8428 35.7765ZM79.1957 34.4118C77.5781 34.4118 76.2957 35.6294 76.2957 37.1941C76.2957 38.753 77.5722 39.9883 79.1957 39.9883C80.8075 39.9883 82.084 38.7471 82.084 37.1941C82.084 35.6353 80.8075 34.4118 79.1957 34.4118ZM79.1957 39.3765C77.9663 39.3765 76.9369 38.4059 76.9369 37.1883C76.9369 35.9706 77.9663 35.0059 79.1957 35.0059C80.4252 35.0059 81.4369 35.9706 81.4369 37.1883C81.4369 38.4059 80.431 39.3765 79.1957 39.3765ZM85.4546 34.4294H84.8252V39.9588H87.884V39.353H85.4604V34.4294H85.4546ZM94.3663 37.6824C94.3663 38.7588 93.7369 39.3824 92.684 39.3824C91.631 39.3824 90.984 38.7588 90.984 37.6824V34.4294H90.3546V37.6824C90.3546 39.1177 91.231 39.9883 92.684 39.9883C94.131 39.9883 94.9957 39.1177 94.9957 37.6824V34.4294H94.3663V37.6824ZM97.3781 35.0353H99.1781V39.953H99.8075V35.0353H101.613V34.4294H97.3722V35.0353H97.3781ZM104.113 39.953H104.743V34.4235H104.113V39.953ZM110.378 34.4118C108.76 34.4118 107.478 35.6294 107.478 37.1941C107.478 38.753 108.76 39.9883 110.378 39.9883C111.99 39.9883 113.266 38.7471 113.266 37.1941C113.266 35.6353 111.99 34.4118 110.378 34.4118ZM110.378 39.3765C109.149 39.3765 108.119 38.4059 108.119 37.1883C108.119 35.9706 109.149 35.0059 110.378 35.0059C111.607 35.0059 112.619 35.9706 112.619 37.1883C112.619 38.4059 111.607 39.3765 110.378 39.3765ZM119.972 38.8706L116.655 34.4235H116.002V39.953H116.631V35.5177L119.949 39.953H120.596V34.4235H119.972V38.8706ZM124.284 35.7765C124.284 35.3118 124.749 35.0412 125.46 35.0412C125.902 35.0412 126.484 35.1765 126.984 35.5059L127.255 34.9118C126.796 34.6059 126.143 34.4 125.502 34.4C124.355 34.4 123.59 34.9588 123.59 35.8294C123.59 37.8118 126.702 37.0353 126.696 38.4883C126.696 39.0177 126.196 39.3412 125.402 39.3412C124.778 39.3412 124.072 39.0588 123.56 38.5588L123.278 39.1294C123.802 39.6294 124.59 39.9765 125.396 39.9765C126.578 39.9765 127.396 39.3824 127.396 38.4588C127.396 36.4588 124.284 37.2 124.284 35.7765Z" fill="#FDFDFD"/>
</g>
<defs>
<clipPath id="clip0_42_2472">
<rect width="127.235" height="40" fill="white" transform="translate(0.189941)"/>
</clipPath>
</defs>
</svg>
