<svg width="133" height="40" viewBox="0 0 133 40" fill="none" xmlns="http://www.w3.org/2000/svg">
<g clip-path="url(#clip0_42_2382)">
<path fill-rule="evenodd" clip-rule="evenodd" d="M63.9437 0V14.4563H61.7262C61.4703 13.9019 60.9159 13.5181 60.3189 13.5181C59.466 13.5181 58.7411 14.2004 58.7411 15.0959C58.7411 15.3092 58.7837 15.4797 58.869 15.6503L55.756 18.7633C55.5854 18.678 55.3722 18.6354 55.2016 18.6354C54.9884 18.6354 54.8178 18.678 54.6046 18.7633L54.0503 18.209C54.1356 18.0384 54.1782 17.8252 54.1782 17.6119C54.1782 16.7591 53.4959 16.0768 52.6004 16.0768C51.7475 16.0768 51.0652 16.7591 51.0652 17.6119C51.0652 17.8252 51.1078 17.9957 51.1931 18.1663L43.6451 25.5437C43.4746 25.4584 43.2613 25.4158 43.0481 25.4158C42.8349 25.4158 42.6643 25.4584 42.4938 25.5437L41.0012 24.0512C41.0012 23.8806 41.0865 23.6674 41.0865 23.4542C41.0865 22.6013 40.4042 21.8763 39.5087 21.8763C38.6558 21.8763 37.9735 22.5586 37.9735 23.4542C37.9735 23.6674 38.0161 23.838 38.1014 24.0085L37.5471 24.5629C37.3765 24.4776 37.1633 24.435 36.9501 24.435C36.7368 24.435 36.5663 24.4776 36.3957 24.5629L33.24 21.4499C33.3253 21.2793 33.368 21.0661 33.368 20.8529C33.368 20 32.6857 19.3177 31.7901 19.3177C30.9373 19.3177 30.255 20 30.255 20.8529C30.255 21.0661 30.2976 21.2367 30.3829 21.4072L19.6366 31.9829C19.466 31.8977 19.2528 31.855 19.0396 31.855C18.8264 31.855 18.6558 31.8977 18.4852 31.9829L16.9927 30.4904C17.078 30.3198 17.1206 30.1066 17.1206 29.936C17.1206 29.0832 16.4383 28.3582 15.5428 28.3582C14.9031 28.3582 14.3488 28.742 14.1356 29.2964H10.9373L33.7518 6.52452L27.2272 0H63.9437Z" fill="#FDFDFD"/>
<path fill-rule="evenodd" clip-rule="evenodd" d="M63.9436 15.6503V36.6738L57.4617 30.1919L48.08 39.5736H0.574707L9.70051 30.4478H14.0928C14.3487 31.0021 14.9031 31.3859 15.5001 31.3859C15.7133 31.3859 15.8839 31.3433 16.0971 31.258L17.6323 32.8358C17.547 33.0064 17.5043 33.2196 17.5043 33.4328C17.5043 34.2857 18.1866 34.968 19.0395 34.968C19.8924 34.968 20.6174 34.2857 20.6174 33.4328C20.6174 33.2196 20.5747 33.049 20.4894 32.8785L31.193 22.3454C31.3636 22.4307 31.5768 22.4734 31.7901 22.4734C32.0033 22.4734 32.1739 22.4307 32.3871 22.3454L35.5001 25.4584C35.4148 25.629 35.3721 25.8422 35.3721 26.0128C35.3721 26.8657 36.0545 27.548 36.9073 27.548C37.7602 27.548 38.4425 26.8657 38.4425 26.0128C38.4425 25.7996 38.3999 25.629 38.3146 25.4584L38.8689 24.9041C39.0395 24.9893 39.2527 25.032 39.4233 25.032C39.6365 25.032 39.8071 24.9893 40.0203 24.9041L41.5129 26.3966C41.5129 26.6098 41.5129 26.7804 41.5129 26.9936C41.5129 27.8465 42.1952 28.5288 43.0481 28.5288C43.9009 28.5288 44.6259 27.8465 44.6259 26.9936C44.6259 26.7804 44.5832 26.6098 44.4979 26.4392L52.0033 19.1045C52.1739 19.1898 52.3871 19.2324 52.6003 19.2324C52.8135 19.2324 52.9841 19.1898 53.1973 19.1045L53.7517 19.6589C53.6664 19.8294 53.6237 20.0427 53.6237 20.2559C53.6237 21.1088 54.306 21.7911 55.1589 21.7911C56.0118 21.7911 56.6941 21.1088 56.6941 20.2559C56.6941 20.0427 56.6515 19.8721 56.5662 19.6589L59.6792 16.5459C59.8498 16.6311 60.063 16.6738 60.2762 16.6738C60.9159 16.6738 61.4702 16.29 61.6834 15.7356H63.9436V15.6503Z" fill="#FDFDFD"/>
<path fill-rule="evenodd" clip-rule="evenodd" d="M36.9501 25.2452C37.3765 25.2452 37.7603 25.5863 37.7603 26.0128C37.7603 26.4392 37.4191 26.823 36.9501 26.823C36.5236 26.823 36.1825 26.4819 36.1825 26.0128C36.1398 25.5863 36.481 25.2452 36.9501 25.2452ZM15.5428 29.0831C15.9693 29.0831 16.353 29.4243 16.353 29.8934C16.353 30.3198 16.0119 30.661 15.5428 30.661C15.1164 30.661 14.7752 30.3198 14.7752 29.8934C14.7326 29.4243 15.1164 29.0831 15.5428 29.0831ZM19.0823 32.6226C19.5087 32.6226 19.8925 32.9637 19.8925 33.4328C19.8925 33.8593 19.5513 34.2004 19.0823 34.2004C18.6558 34.2004 18.3147 33.8593 18.3147 33.4328C18.272 32.9637 18.6558 32.6226 19.0823 32.6226ZM31.7901 20.0853C32.2166 20.0853 32.6004 20.4264 32.6004 20.8529C32.6004 21.2793 32.2592 21.6631 31.7901 21.6631C31.3637 21.6631 31.0226 21.322 31.0226 20.8529C31.0226 20.4691 31.3637 20.0853 31.7901 20.0853ZM60.3189 14.2857C60.7454 14.2857 61.0865 14.6269 61.0865 15.0959C61.0865 15.5224 60.7454 15.8635 60.3189 15.8635C59.8925 15.8635 59.5087 15.5224 59.5087 15.0959C59.5513 14.6269 59.8925 14.2857 60.3189 14.2857ZM55.2017 19.403C55.6281 19.403 55.9692 19.7441 55.9692 20.2132C55.9692 20.6397 55.6281 20.9808 55.2017 20.9808C54.7752 20.9808 54.3914 20.6397 54.3914 20.2132C54.3914 19.7868 54.7326 19.403 55.2017 19.403ZM52.6004 16.8443C53.0268 16.8443 53.4106 17.1855 53.4106 17.6119C53.4106 18.0384 53.0695 18.4222 52.6004 18.4222C52.1739 18.4222 51.8328 18.081 51.8328 17.6119C51.8328 17.1855 52.1739 16.8443 52.6004 16.8443ZM43.0481 26.1834C43.4746 26.1834 43.8584 26.5245 43.8584 26.9936C43.8584 27.42 43.5172 27.7612 43.0481 27.7612C42.6217 27.7612 42.2806 27.42 42.2806 26.9936C42.2806 26.5672 42.6217 26.1834 43.0481 26.1834ZM39.5087 22.6866C39.9351 22.6866 40.3189 23.0277 40.3189 23.4968C40.3189 23.9232 39.9778 24.2644 39.5087 24.2644C39.0823 24.2644 38.7411 23.9232 38.7411 23.4968C38.7411 23.0277 39.0823 22.6866 39.5087 22.6866Z" fill="#FDFDFD"/>
<path d="M69.658 10.9169V3.75267C69.658 2.64393 69.9565 1.79105 70.5535 1.15139C71.1505 0.511734 72.0034 0.213226 73.0268 0.213226C74.0503 0.213226 74.8179 0.511734 75.3722 1.10875C75.884 1.70576 76.1825 2.60129 76.1825 3.79532V5.07463H74.0929V3.62474C74.0929 3.15566 74.0076 2.77186 73.7944 2.516C73.6238 2.26013 73.3253 2.1322 72.9415 2.1322C72.5577 2.1322 72.3019 2.26013 72.0887 2.516C71.9181 2.77186 71.7902 3.11301 71.7902 3.62474V11.4286C71.7902 11.8977 71.8754 12.2815 72.0887 12.5373C72.2592 12.7932 72.5577 12.9211 72.9415 12.9211C73.3253 12.9211 73.5812 12.7932 73.7944 12.5373C73.965 12.2815 74.0929 11.9403 74.0929 11.4286V9.25374H72.771V7.46269H76.1825V14.5416H75.159L74.7326 13.5608C74.4767 13.9872 74.2209 14.3284 73.8797 14.5416C73.5386 14.7548 73.1548 14.8401 72.643 14.8401C71.6622 14.8401 70.9373 14.4989 70.4256 13.8593C69.9138 13.177 69.658 12.1962 69.658 10.9169Z" fill="#FDFDFD"/>
<path d="M77.9309 3.75267C77.9309 2.64393 78.2294 1.79105 78.8264 1.15139C79.4234 0.511734 80.2763 0.213226 81.2998 0.213226C82.2806 0.213226 83.0908 0.554378 83.6878 1.19404C84.2849 1.8337 84.5834 2.72922 84.5834 3.83796V11.0021C84.5834 12.2388 84.2849 13.177 83.7305 13.8593C83.1335 14.5416 82.3232 14.8401 81.2571 14.8401C80.191 14.8401 79.3382 14.4989 78.7838 13.8593C78.2294 13.177 77.9309 12.2388 77.9309 10.9595V3.75267ZM82.3659 11.4286V3.62474C82.3659 3.15566 82.2806 2.77186 82.0674 2.516C81.8968 2.26013 81.5983 2.1322 81.2145 2.1322C80.8307 2.1322 80.5748 2.26013 80.3616 2.516C80.191 2.77186 80.0631 3.11301 80.0631 3.62474V11.4286C80.0631 11.8977 80.1484 12.2815 80.3616 12.5373C80.5322 12.7932 80.8307 12.9211 81.2145 12.9211C81.5983 12.9211 81.8542 12.7932 82.0674 12.5373C82.2379 12.2815 82.3659 11.9403 82.3659 11.4286Z" fill="#FDFDFD"/>
<path d="M86.2891 3.75267C86.2891 2.64393 86.5876 1.79105 87.1846 1.15139C87.7816 0.511734 88.6345 0.213226 89.6579 0.213226C90.6387 0.213226 91.449 0.554378 92.046 1.19404C92.643 1.8337 92.9415 2.72922 92.9415 3.83796V11.0021C92.9415 12.2388 92.643 13.177 92.0886 13.8593C91.4916 14.5416 90.6814 14.8401 89.6153 14.8401C88.5492 14.8401 87.6963 14.4989 87.1419 13.8593C86.5876 13.177 86.2891 12.2388 86.2891 10.9595V3.75267ZM90.724 11.4286V3.62474C90.724 3.15566 90.6387 2.77186 90.4255 2.516C90.2549 2.26013 89.9564 2.1322 89.5726 2.1322C89.1888 2.1322 88.933 2.26013 88.7198 2.516C88.5492 2.77186 88.4213 3.11301 88.4213 3.62474V11.4286C88.4213 11.8977 88.5065 12.2815 88.7198 12.5373C88.8903 12.7932 89.1888 12.9211 89.5726 12.9211C89.9564 12.9211 90.2123 12.7932 90.4255 12.5373C90.5961 12.2815 90.724 11.9403 90.724 11.4286Z" fill="#FDFDFD"/>
<path d="M94.9031 14.5416V0.511719H97.9734C99.1675 0.511719 100.063 0.810226 100.617 1.44989C101.172 2.08954 101.47 3.02771 101.47 4.34967V10.6183C101.47 11.9829 101.214 12.9637 100.66 13.6034C100.106 14.2431 99.2528 14.5416 98.0587 14.5416H94.9031ZM97.0353 12.452H98.144C98.5278 12.452 98.8263 12.3241 98.9969 12.1109C99.1675 11.855 99.2528 11.5138 99.2528 11.0021V4.26438C99.2528 3.71001 99.1248 3.28357 98.8263 2.98507C98.5278 2.7292 98.1014 2.60127 97.5044 2.60127H96.9926V12.452H97.0353Z" fill="#FDFDFD"/>
<path d="M69.9138 31.3006V17.2708H73.0695C74.2635 17.2708 75.1164 17.6119 75.6281 18.2516C76.1825 18.8913 76.4383 19.9147 76.4383 21.3646C76.4383 22.6866 76.1825 23.7527 75.6707 24.4776C75.159 25.2452 74.4341 25.629 73.5386 25.629H72.046V31.3433H69.9138V31.3006ZM72.046 23.5821H72.8989C73.4106 23.5821 73.7518 23.4115 73.9223 23.113C74.0929 22.8145 74.2209 22.2175 74.2209 21.3646C74.2209 20.5544 74.1356 20.0426 73.9223 19.7441C73.7091 19.4456 73.368 19.3177 72.8136 19.3177H72.046V23.5821Z" fill="#FDFDFD"/>
<path d="M80.1058 25.3731V31.258H77.9309V17.2708H81.0866C82.2806 17.2708 83.1335 17.6119 83.6452 18.2516C84.1569 18.8913 84.4554 19.9147 84.4554 21.3646C84.4554 22.2601 84.3701 22.9424 84.1569 23.4968C83.9437 24.0512 83.6026 24.4776 83.0908 24.8188L84.6686 31.3433H82.4512L81.1292 25.4584H80.1058V25.3731ZM80.1058 19.275V23.3262H80.9586C81.4704 23.3262 81.8115 23.1556 81.9821 22.8571C82.1953 22.5586 82.2806 22.0043 82.2806 21.194C82.2806 20.4691 82.1953 19.9573 81.9821 19.6588C81.7689 19.3603 81.4277 19.2324 80.8733 19.2324H80.1058V19.275Z" fill="#FDFDFD"/>
<path d="M91.7474 17.9105C91.1504 17.2708 90.3828 16.9297 89.3593 16.9297C88.2932 16.9297 87.483 17.2282 86.886 17.8678C86.289 18.5075 85.9905 19.3604 85.9905 20.4691V27.6333C85.9905 28.9126 86.289 29.8934 86.8434 30.5331C87.3977 31.2154 88.2506 31.5139 89.3167 31.5139C90.3828 31.5139 91.193 31.1727 91.79 30.5331C92.3871 29.8508 92.6429 28.9126 92.6429 27.6759V20.5544C92.6429 19.4456 92.3444 18.5928 91.7474 17.9105ZM90.3828 28.1877C90.3828 28.6567 90.2975 29.0405 90.0843 29.2964C89.9137 29.5523 89.6152 29.6802 89.2314 29.6802C88.8476 29.6802 88.5918 29.5523 88.3785 29.2964C88.208 29.0405 88.08 28.6994 88.08 28.1877V20.3838C88.08 19.9147 88.1653 19.5309 88.3785 19.2751C88.5918 19.0192 88.8476 18.9339 89.2314 18.9339C89.6152 18.9339 89.8711 19.0619 90.0843 19.2751C90.2975 19.4883 90.3828 19.8721 90.3828 20.3838V28.1877Z" fill="#FDFDFD"/>
<path d="M94.3489 27.6759V20.5117C94.3489 19.403 94.6474 18.5501 95.2444 17.9105C95.8414 17.2708 96.6943 16.9723 97.7178 16.9723C98.7412 16.9723 99.5088 17.2708 100.063 17.8678C100.575 18.4648 100.873 19.3604 100.873 20.5544V21.8337H98.7838V20.3412C98.7838 19.8721 98.6986 19.4883 98.4853 19.2324C98.3148 18.9766 98.0163 18.8486 97.6325 18.8486C97.2487 18.8486 96.9928 18.9766 96.7796 19.2324C96.609 19.4883 96.4811 19.8294 96.4811 20.3412V28.145C96.4811 28.6141 96.5664 28.9979 96.7796 29.2537C96.9502 29.5096 97.2487 29.6375 97.6325 29.6375C98.0163 29.6375 98.2721 29.5096 98.4853 29.2537C98.6559 28.9979 98.7838 28.6567 98.7838 28.145V26.0128H97.4619V24.2218H100.873V31.3006H99.8499L99.4235 30.3198C99.1676 30.7463 98.9118 31.0874 98.5706 31.258C98.2295 31.4712 97.8457 31.5565 97.334 31.5565C96.3531 31.5565 95.6282 31.2154 95.1165 30.5757C94.6047 29.936 94.3489 28.9552 94.3489 27.6759Z" fill="#FDFDFD"/>
<path d="M105.01 25.3731V31.258H102.835V17.2708H105.991C107.185 17.2708 108.038 17.6119 108.549 18.2516C109.061 18.8913 109.359 19.9147 109.359 21.3646C109.359 22.2601 109.274 22.9424 109.061 23.4968C108.848 24.0512 108.507 24.4776 107.995 24.8188L109.573 31.3433H107.313L105.991 25.4584H105.01V25.3731ZM105.01 19.275V23.3262H105.863C106.374 23.3262 106.716 23.1556 106.886 22.8571C107.099 22.5586 107.185 22.0043 107.185 21.194C107.185 20.4691 107.099 19.9573 106.886 19.6588C106.673 19.3603 106.332 19.2324 105.777 19.2324H105.01V19.275Z" fill="#FDFDFD"/>
<path d="M111.15 31.3006V17.2708H116.779V19.3177H113.283V22.9851H115.799V25.032H113.283V29.2111H116.779V31.3006H111.15Z" fill="#FDFDFD"/>
<path d="M117.76 27.7185L119.807 27.42C119.85 28.145 119.978 28.6567 120.234 28.9979C120.447 29.339 120.788 29.5096 121.257 29.5096C121.641 29.5096 121.982 29.3817 122.195 29.1258C122.451 28.8699 122.579 28.5288 122.579 28.145C122.579 27.42 121.982 26.4819 120.831 25.3305C120.745 25.2452 120.66 25.1599 120.617 25.1173C119.466 23.9659 118.741 23.113 118.443 22.516C118.101 21.919 117.973 21.2367 117.973 20.5544C117.973 19.5736 118.315 18.7207 118.954 18.0384C119.594 17.3561 120.404 17.0149 121.342 17.0149C122.238 17.0149 123.005 17.3134 123.602 17.9531C124.199 18.5927 124.498 19.403 124.583 20.4691L122.451 20.7676C122.408 20.1279 122.281 19.7015 122.11 19.403C121.939 19.1471 121.641 18.9765 121.257 18.9765C120.916 18.9765 120.617 19.1045 120.404 19.3177C120.191 19.5736 120.106 19.8721 120.106 20.2559C120.106 21.0661 120.788 22.1322 122.153 23.4542C122.195 23.4968 122.238 23.5394 122.281 23.5821C123.261 24.5629 123.944 25.3305 124.242 25.9701C124.541 26.5672 124.711 27.2921 124.711 28.0171C124.711 29.0405 124.413 29.8934 123.773 30.533C123.133 31.1727 122.323 31.5139 121.385 31.5139C120.319 31.5139 119.466 31.1727 118.826 30.4904C118.187 29.8934 117.846 28.9552 117.76 27.7185Z" fill="#FDFDFD"/>
<path d="M125.564 27.7185L127.611 27.42C127.654 28.145 127.782 28.6567 128.038 28.9979C128.251 29.339 128.592 29.5096 129.061 29.5096C129.445 29.5096 129.786 29.3817 130.042 29.1258C130.298 28.8699 130.426 28.5288 130.426 28.145C130.426 27.42 129.829 26.4819 128.677 25.3305C128.592 25.2452 128.507 25.1599 128.464 25.1173C127.313 23.9659 126.588 23.113 126.289 22.516C125.948 21.919 125.82 21.2367 125.82 20.5544C125.82 19.5736 126.161 18.7207 126.801 18.0384C127.441 17.3561 128.251 17.0149 129.189 17.0149C130.084 17.0149 130.852 17.3134 131.449 17.9531C132.046 18.5927 132.345 19.403 132.43 20.4691L130.298 20.7676C130.255 20.1279 130.127 19.7015 129.957 19.403C129.786 19.1471 129.487 18.9765 129.104 18.9765C128.762 18.9765 128.464 19.1045 128.251 19.3177C128.038 19.5736 127.952 19.8721 127.952 20.2559C127.952 21.0661 128.635 22.1322 129.999 23.4542C130.042 23.4968 130.084 23.5394 130.127 23.5821C131.108 24.5629 131.79 25.3305 132.089 25.9701C132.387 26.5672 132.558 27.2921 132.558 28.0171C132.558 29.0405 132.259 29.8934 131.62 30.533C130.98 31.1727 130.17 31.5139 129.232 31.5139C128.165 31.5139 127.313 31.1727 126.673 30.4904C125.948 29.8934 125.607 28.9552 125.564 27.7185Z" fill="#FDFDFD"/>
<path d="M69.7432 34.6695H70.5534L71.0651 36.759H71.1078L71.6195 34.6695H72.4297L71.4916 37.6972V39.8721H70.6813V37.8251L69.7432 34.6695Z" fill="#FDFDFD"/>
<path d="M72.6855 35.9062C72.6855 35.4798 72.8135 35.1812 73.0267 34.9254C73.2399 34.7122 73.5384 34.5842 73.9649 34.5842C74.3487 34.5842 74.6472 34.7122 74.8604 34.9254C75.0736 35.1812 75.2015 35.4798 75.2015 35.9062V38.5501C75.2015 39.0192 75.0736 39.3603 74.8604 39.6162C74.6472 39.8721 74.3487 40 73.9649 40C73.5811 40 73.2399 39.8721 73.0693 39.6162C72.8561 39.3603 72.7708 39.0192 72.7708 38.5501V35.9062H72.6855ZM74.306 38.7207V35.8209C74.306 35.6503 74.2634 35.5224 74.2207 35.4371C74.1354 35.3518 74.0501 35.3092 73.9222 35.3092C73.7943 35.3092 73.6664 35.3518 73.6237 35.4371C73.5384 35.5224 73.5384 35.6503 73.5384 35.8209V38.7207C73.5384 38.8913 73.5811 39.0192 73.6237 39.1471C73.709 39.2324 73.7943 39.2751 73.9222 39.2751C74.0501 39.2751 74.1781 39.2324 74.2207 39.1471C74.2634 39.0618 74.306 38.8913 74.306 38.7207Z" fill="#FDFDFD"/>
<path d="M75.7986 34.6695H76.6088V38.678C76.6088 38.8486 76.6515 38.9339 76.7368 39.0192C76.822 39.1045 76.9073 39.1471 77.0353 39.1471C77.1632 39.1471 77.2485 39.1045 77.3338 39.0192C77.4191 38.9339 77.4617 38.806 77.4617 38.678V34.6695H78.2719V38.5501C78.2719 39.0192 78.1866 39.3603 77.9734 39.6162C77.7602 39.8721 77.4617 40 77.0779 40C76.6941 40 76.353 39.8721 76.1397 39.6162C75.9265 39.3603 75.8412 39.0192 75.8412 38.5501V34.6695H75.7986Z" fill="#FDFDFD"/>
<path d="M79.8071 37.6972V39.8721H79.0396V34.6695H80.2336C80.66 34.6695 81.0012 34.7974 81.1717 35.0106C81.385 35.2665 81.4703 35.6503 81.4703 36.162C81.4703 36.5032 81.4276 36.759 81.3423 36.9723C81.257 37.1855 81.1291 37.3561 80.9585 37.4413L81.5555 39.8721H80.7453L80.2336 37.6972H79.8071ZM79.8071 35.4371V36.9296H80.1056C80.2762 36.9296 80.4042 36.887 80.4894 36.759C80.5747 36.6311 80.6174 36.4605 80.6174 36.1194C80.6174 35.8635 80.5747 35.6503 80.4894 35.565C80.4042 35.4797 80.2762 35.3944 80.063 35.3944H79.8071V35.4371Z" fill="#FDFDFD"/>
<path d="M83.1333 35.4371V34.6695H85.6066V35.4371H84.7538V39.8721H83.9435V35.4371H83.1333Z" fill="#FDFDFD"/>
<path d="M85.3936 39.8721L86.2464 34.6695H87.3125L88.1654 39.8721H87.3552L87.1846 38.7633H86.3744L86.2038 39.8721H85.3936ZM86.4597 38.0384H87.0567L86.8008 35.8635H86.7582L86.4597 38.0384Z" fill="#FDFDFD"/>
<path d="M88.5066 38.5501V35.9062C88.5066 35.4798 88.6345 35.1812 88.8477 34.9254C89.061 34.7122 89.3595 34.5842 89.7859 34.5842C90.1697 34.5842 90.4682 34.7122 90.6388 34.9254C90.852 35.1386 90.9373 35.4798 90.9373 35.9062V36.3753H90.1697V35.8209C90.1697 35.6503 90.1271 35.5224 90.0844 35.4371C89.9991 35.3518 89.9138 35.3092 89.7859 35.3092C89.658 35.3092 89.53 35.3518 89.4874 35.4371C89.4021 35.5224 89.4021 35.6503 89.4021 35.8209V38.7207C89.4021 38.8913 89.4448 39.0192 89.4874 39.1471C89.5727 39.2324 89.658 39.2751 89.7859 39.2751C89.9138 39.2751 90.0418 39.2324 90.0844 39.1471C90.1697 39.0618 90.1697 38.9339 90.1697 38.7207V37.9105H89.7006V37.2708H90.9373V39.8721H90.5535L90.3829 39.5309C90.2976 39.7015 90.1697 39.8294 90.0844 39.8721C89.9565 39.9574 89.8286 40 89.6153 40C89.2742 40 88.9757 39.8721 88.8051 39.6162C88.5919 39.3603 88.5066 39.0192 88.5066 38.5501Z" fill="#FDFDFD"/>
<path d="M91.6621 39.8721V34.6695H92.4723V39.1045H93.709V39.8721H91.6621Z" fill="#FDFDFD"/>
<path d="M94.1355 39.8721V34.6695H94.9457V39.8721H94.1355Z" fill="#FDFDFD"/>
<path d="M95.7559 39.8721V34.6695H96.4808L97.5043 37.7825C97.5043 37.8251 97.5469 37.9104 97.5895 38.0384C97.6322 38.1236 97.6322 38.2516 97.6748 38.3369C97.6322 38.1663 97.6322 38.0384 97.5895 37.9104C97.5895 37.7825 97.5469 37.6972 97.5469 37.6119V34.6695H98.3145V39.8721H97.5469L96.5661 37.0149V36.9723C96.4808 36.759 96.4382 36.5885 96.3955 36.4605C96.4382 36.6311 96.4382 36.8017 96.4808 36.9296C96.4808 37.0576 96.5235 37.1428 96.5235 37.1855V39.9147H95.7559V39.8721Z" fill="#FDFDFD"/>
<path d="M99.1248 39.8721V34.6695H101.214V35.4371H99.935V36.8017H100.873V37.5266H99.935V39.0618H101.214V39.8294H99.1248V39.8721Z" fill="#FDFDFD"/>
<path d="M103.347 34.6695H104.157V36.8017H104.967V34.6695H105.777V39.8721H104.967V37.5693H104.157V39.8721H103.347V34.6695Z" fill="#FDFDFD"/>
<path d="M106.545 39.8721V34.6695H108.634V35.4371H107.355V36.8017H108.293V37.5266H107.355V39.0618H108.634V39.8294H106.545V39.8721Z" fill="#FDFDFD"/>
<path d="M110.042 37.6972V39.8721H109.231V34.6695H110.425C110.852 34.6695 111.193 34.7974 111.364 35.0106C111.577 35.2665 111.662 35.6503 111.662 36.162C111.662 36.5032 111.62 36.759 111.534 36.9723C111.449 37.1855 111.321 37.3561 111.15 37.4413L111.747 39.8721H110.937L110.425 37.6972H110.042ZM110.042 35.4371V36.9296H110.34C110.511 36.9296 110.639 36.887 110.724 36.759C110.809 36.6311 110.852 36.4605 110.852 36.1194C110.852 35.8635 110.809 35.6503 110.724 35.565C110.639 35.4797 110.511 35.3944 110.298 35.3944H110.042V35.4371Z" fill="#FDFDFD"/>
<path d="M112.344 39.8721V34.6695H114.434V35.4371H113.155V36.8017H114.093V37.5266H113.155V39.0618H114.434V39.8294H112.344V39.8721Z" fill="#FDFDFD"/>
</g>
<defs>
<clipPath id="clip0_42_2382">
<rect width="131.94" height="40" fill="white" transform="translate(0.574707)"/>
</clipPath>
</defs>
</svg>
