<svg width="40" height="40" viewBox="0 0 40 40" fill="none" xmlns="http://www.w3.org/2000/svg">
<mask id="mask0_101_1079" style="mask-type:alpha" maskUnits="userSpaceOnUse" x="0" y="0" width="40" height="40">
<path d="M20 40C31.0457 40 40 31.0457 40 20C40 8.9543 31.0457 0 20 0C8.9543 0 0 8.9543 0 20C0 31.0457 8.9543 40 20 40Z" fill="white"/>
</mask>
<g mask="url(#mask0_101_1079)">
<path d="M39.9914 0H0V39.9828H39.9914V0Z" fill="#DBDBDB"/>
<path d="M20.4983 32.036C26.4387 32.036 31.2543 26.7011 31.2543 20.1202C31.2543 13.5393 26.4387 8.20442 20.4983 8.20442C14.5579 8.20442 9.74228 13.5393 9.74228 20.1202C9.74228 26.7011 14.5579 32.036 20.4983 32.036Z" fill="#525252"/>
<path d="M24.7508 26.0223C24.7508 26.0223 22.8952 32.5945 25.3436 34.811C25.8505 35.2749 27.6289 35.8762 27.6289 35.8762L27.7577 36.3831C27.7577 36.3831 27.7405 35.6357 28.213 36.1254C28.6856 36.6151 30.1031 36.8642 30.1031 36.8642L32.7577 38.3333C32.7577 38.3333 34.4072 39.2525 34.4072 39.622C34.4072 39.9914 34.4072 39.9914 34.4072 39.9914H5.2749L7.98968 37.6031L10.0515 37.1134C10.0515 37.1134 10.756 36.2543 11.1168 36.3745C11.4691 36.4948 11.4691 36.4948 11.4691 36.4948L12.1048 35.8934C12.1048 35.8934 14.811 34.6477 15.4467 33.634C16.6409 31.7268 16.0395 26.8814 16.0395 26.8814L24.7508 26.0223Z" fill="url(#paint0_linear_101_1079)"/>
<path d="M14.1409 24.7767C14.1409 24.7767 13.2131 26.366 17.1478 30.0258C17.5 30.3523 18.2904 31.3488 18.6684 31.4949C20.0515 32.0275 20.799 31.6667 21.5722 31.4347C22.1907 31.2543 23.024 30.275 23.024 30.275C23.024 30.275 26.2972 27.7578 26.3574 26.4691C26.4175 25.189 26.8213 24.7681 26.8213 24.7681C26.8213 24.7681 26.9072 24.5963 27.2423 24.7595C27.8179 25.0344 28.1529 23.9262 28.256 22.7062C28.3333 21.7698 27.8179 20.5842 27.2337 20.6358C26.6495 20.6873 26.8814 20.7904 26.8814 20.7904C26.8728 20.7217 26.933 19.622 26.7096 18.7543C26.3746 17.4485 26.4089 15.8334 24.9914 15C23.5739 14.1667 24.768 15.0774 22.7234 14.476C21.8471 14.2182 18.823 12.0619 17.7062 11.6753C16.5893 11.2887 14.7509 15.4038 14.3728 16.1684C13.9089 17.1134 14.0893 20.9794 14.1409 21.6495C14.201 22.3196 14.201 22.3196 14.201 22.3196C14.201 22.3196 13.7887 20.5327 13.4364 20.421C13.0842 20.3093 12.4313 20.3093 12.5515 21.6495C12.6718 22.9897 12.3282 22.1134 13.3161 24.4416C13.9003 25.8076 14.1409 24.7767 14.1409 24.7767Z" fill="#F6D6C1"/>
<path d="M11.6838 10.5069C11.6838 10.4811 11.6409 10.4639 11.6409 10.4382C11.5807 10.0086 10.9192 7.53438 13.3076 6.88146C15.8076 6.20277 19.012 4.33851 23.6856 6.9416H23.6942C23.8746 7.06187 31.6495 12.4313 31.0137 16.8299C31.0051 16.8815 31.0395 16.9244 31.0911 16.9416C31.4691 17.0361 32.8608 17.543 32.4742 20.0172C32.4742 20.0258 32.4742 20.0258 32.4656 20.0344C32.2509 20.5498 31.7955 20.8076 31.5636 20.9622C31.512 20.9966 31.8041 21.2285 31.8385 21.4863C32.0103 22.8093 31.3574 23.7543 31.1942 24.244C31.0051 24.8024 31.134 27.5945 32.1563 27.4055C33.1787 27.2165 32.5429 26.409 32.3454 26.3488C32.3454 26.3488 33.4966 26.7784 32.6031 27.8351L32.5945 27.8437C32.5515 27.9124 32.0876 28.6512 31.4089 28.9004C31.3574 28.9175 31.3316 28.9691 31.3488 29.0206C31.6752 30.1203 32.6031 29.7595 32.5344 29.8454C31.4089 31.366 30.567 29.476 30.567 29.476C30.5584 29.5017 31.4175 31.3574 30.4897 31.8127C29.4673 32.311 29.2096 35.7217 25.6787 33.4279C25.6787 33.4279 28.634 35.0344 29.4158 32.4657C29.4416 32.3969 29.3728 32.3282 29.2955 32.3368C28.7629 32.4313 27.0275 32.6117 26.2113 31.3488C26.1942 31.3316 26.1942 31.3059 26.1942 31.2801C26.2457 30.8419 25.0086 30.0258 24.5275 30.4811C23.9777 30.9966 23.823 30.5155 23.8144 29.8024C23.8058 28.5739 24.2268 27.3797 24.9656 26.3918L26.8213 23.909C26.8213 23.8832 26.8213 23.866 26.8041 23.8488L25.61 21.9588C25.61 21.9588 25.61 21.9502 25.6014 21.9502C25.5155 21.8471 23.5997 19.3986 22.7234 16.1254C21.8299 12.7921 19.9828 11.6065 13.9003 11.8385C13.8488 11.8385 13.8144 11.8729 13.8058 11.9158C13.7285 12.2681 13.3419 13.7887 11.7955 15.7818C11.7783 15.799 11.7698 15.8248 11.7783 15.8505C11.8213 16.2801 12.1649 20.1718 11.1942 22.5086C10.1718 24.9914 9.52749 27.4742 10.6186 29.8883C11.555 31.976 14.0807 32.8093 16.7268 32.1822C16.8557 32.1478 15.421 32.5258 15.2921 32.5602C14.0378 32.9382 12.1048 32.9811 10.4295 30.7646C10.421 30.756 9.06357 29.9914 9.36426 22.6117C9.37285 22.4055 9.57903 22.2423 9.56185 22.2251C9.27834 21.8643 6.48625 18.1701 9.71649 14.7509C12.7749 11.5292 11.6838 11.5808 11.6838 10.5069Z" fill="#525252"/>
<path d="M10.6958 24.4158C10.6958 24.4158 9.81954 26.5292 10.9707 29.1924C12.1134 31.8556 14.3728 30.378 14.3728 30.378C14.3728 30.378 11.5635 30.8161 12.3969 28.6512C14.1838 24.0034 10.6958 24.4158 10.6958 24.4158Z" fill="#525252"/>
</g>
<defs>
<linearGradient id="paint0_linear_101_1079" x1="19.8426" y1="40.9683" x2="19.8426" y2="24.1063" gradientUnits="userSpaceOnUse">
<stop stop-color="#F6D6C1"/>
<stop offset="0.2519" stop-color="#F2D2BE"/>
<stop offset="0.4977" stop-color="#E6C8B3"/>
<stop offset="0.7409" stop-color="#D3B6A2"/>
<stop offset="0.9813" stop-color="#B79D8A"/>
<stop offset="1" stop-color="#B59B88"/>
</linearGradient>
</defs>
</svg>
