<svg width="40" height="40" viewBox="0 0 40 40" fill="none" xmlns="http://www.w3.org/2000/svg">
<mask id="mask0_101_1033" style="mask-type:alpha" maskUnits="userSpaceOnUse" x="0" y="0" width="40" height="40">
<path d="M20 40C31.0457 40 40 31.0457 40 20C40 8.9543 31.0457 0 20 0C8.95431 0 0 8.9543 0 20C0 31.0457 8.95431 40 20 40Z" fill="white"/>
</mask>
<g mask="url(#mask0_101_1033)">
<path d="M40 0H0.00862694V39.9914H40V0Z" fill="#DBDBDB"/>
<path d="M26.9847 35.9279C22.1651 34.2268 17.294 34.2784 12.44 35.9279V31.3746C17.3283 30.1289 22.1737 30.2062 26.9847 31.3746V35.9279Z" fill="url(#paint0_linear_101_1033)"/>
<path d="M24.9399 27.5C24.5791 27.5 25.232 32.1134 25.567 33.2217C26.0138 34.6993 28.8145 35.8419 31.6925 36.7182C33.0155 37.122 35.4554 38.8746 35.7904 39.5619C35.988 39.957 37.921 40 37.921 40H4.03784L6.04815 38.067C6.6667 37.4742 7.43131 37.0447 8.26464 36.8299L9.24403 36.5722L10.4382 36.0052C10.6701 35.8935 10.8849 35.7646 11.0911 35.61L13.5481 33.7457C13.5481 33.7457 14.3213 32.7835 14.2526 31.323C14.1925 29.8625 14.1925 27.5 14.1925 27.5H24.9399V27.5Z" fill="url(#paint1_linear_101_1033)"/>
<path d="M27.0963 35.0344C27.0963 35.0344 23.4451 35.6959 19.4331 35.7646L11.8386 34.9485C11.8386 34.9485 8.49669 36.1169 6.52934 37.0275C6.40906 37.0791 6.30596 37.1478 6.20287 37.2337L2.74927 39.9914H37.7149L33.1273 36.9158C33.1187 36.9158 28.763 35.4296 27.0963 35.0344Z" fill="url(#paint2_linear_101_1033)"/>
<path d="M17.8866 39.9485H21.5808L20.5069 38.5911H19.0035L17.8866 39.9485Z" fill="#525252"/>
<path d="M19.3815 35.3694L17.3455 37.4055C17.3455 37.4055 17.7492 39.0979 18.6685 38.9261C18.7544 38.9089 18.6599 39.0034 19.0809 39.1924C19.519 39.39 20.0774 39.1838 20.4898 39.1323C21.0224 39.055 21.4864 38.7457 21.7527 38.2818L22.251 37.4312L20.3094 35.4553L19.3815 35.3694Z" fill="#525252"/>
<path d="M11.4864 35.3522C11.4864 35.3522 14.8455 38.11 17.2081 38.3935C17.3971 38.4192 17.8868 38.4364 17.9641 38.3162L19.8112 35.4553L12.9211 33.1959L11.4864 35.3522Z" fill="url(#paint3_radial_101_1033)"/>
<path d="M28.1702 35.3952C28.1702 35.3952 24.8111 38.1529 22.4486 38.4364C22.2595 38.4622 21.7699 38.4794 21.6925 38.3591L19.8455 35.4983L26.7355 33.2388L28.1702 35.3952Z" fill="url(#paint4_radial_101_1033)"/>
<path d="M12.1994 23.2561C12.1994 23.2561 13.2217 28.2475 15.7819 29.7939C19.7853 32.2165 22.5344 30.1633 22.5344 30.1633C22.5344 30.1633 25.7303 27.3024 26.2544 25.6186C26.7183 24.1152 26.8901 23.2561 26.8901 23.2561C26.8901 23.2561 27.3111 23.2561 27.5946 22.9124C27.8781 22.5688 27.9468 20.3351 28.153 19.7079C28.3678 19.0808 28.5052 18.0413 27.8008 18.11C27.0963 18.1787 26.7441 19.3643 26.7441 19.3643C26.7441 19.3643 28.0671 14.811 27.6461 13.5653C27.2252 12.311 26.8128 12.1306 25.129 11.0911C23.4451 10.0516 22.6032 9.21825 21.5722 9.57048C20.5413 9.91413 15.7046 10.1375 14.3729 9.6478C13.0413 9.15811 11.787 13.2475 11.5722 14.287C11.3575 15.3265 12.1393 18.531 12.208 19.3729C12.2767 20.2062 12.2767 20.2062 12.2767 20.2062C12.2767 20.2062 11.787 17.9811 11.3661 17.8437C10.9451 17.7062 10.1719 17.7062 10.3094 19.3729C10.4468 21.0396 10.6186 19.7509 11.22 22.8523C11.5637 24.6478 12.1994 23.2561 12.1994 23.2561Z" fill="#F6D6C1"/>
<path d="M12.44 31.4089C12.44 31.4089 11.83 35.0086 11.4348 35.1117C11.0396 35.2148 15.7819 37.543 17.5259 37.7663C17.5259 37.7663 18.574 35.9536 19.751 35.4038C19.751 35.4038 12.6805 33.0155 12.44 31.4089Z" fill="#F9F7F7"/>
<path d="M27.0018 31.3746C27.0018 31.3746 27.6462 34.9657 28.0328 35.0602C28.4194 35.1547 23.7544 37.543 22.0362 37.7835C22.0362 37.7835 20.9795 35.988 19.8111 35.4468C19.8111 35.4553 26.7785 32.9811 27.0018 31.3746Z" fill="#F9F7F7"/>
<path d="M12.3368 19.1065C12.3368 19.1065 11.7612 17.268 11.8901 16.3574C12.019 15.4381 11.3832 11.701 13.5482 11.0481C15.7131 10.3952 17.5001 11.1168 18.0757 10.9794C18.6513 10.8505 20.8935 9.7852 21.7097 9.99997C22.6289 10.2405 25.7904 12.8178 26.555 12.8178C26.555 12.8178 26.8815 14.7508 27.0705 15.0773C27.2595 15.4038 26.8729 18.0584 26.8729 18.4536C26.8729 18.8488 26.8729 19.0464 27.0018 19.433C27.0018 19.433 27.1908 18.7113 27.2595 18.256C27.3196 17.8007 28.0842 16.6151 28.0842 16.6151C28.0842 16.6151 28.72 12.6804 28.5911 12.4227C28.4623 12.1563 29.2269 11.8299 28.0842 9.67351C26.9416 7.51716 21.8385 4.36424 19.7337 4.1065C17.6289 3.84018 14.6994 4.1065 13.488 7.51716C13.488 7.51716 10.3007 8.23881 9.854 11.6409C9.40727 15.0515 11.8901 17.4742 11.8901 18.5223C11.8901 19.5704 12.208 20.1632 12.208 20.1632L12.3368 19.1065Z" fill="#525252"/>
</g>
<defs>
<linearGradient id="paint0_linear_101_1033" x1="12.4454" y1="33.199" x2="26.9875" y2="33.199" gradientUnits="userSpaceOnUse">
<stop stop-color="#A1A1A1"/>
<stop offset="0.0577997" stop-color="#B2B2B2"/>
<stop offset="0.1872" stop-color="#D4D4D4"/>
<stop offset="0.3108" stop-color="#ECECEC"/>
<stop offset="0.4253" stop-color="#FAFAFA"/>
<stop offset="0.5215" stop-color="white"/>
<stop offset="0.6449" stop-color="#FCFCFB"/>
<stop offset="0.7549" stop-color="#F1F1F1"/>
<stop offset="0.8598" stop-color="#DFDFDE"/>
<stop offset="0.9609" stop-color="#C6C6C5"/>
<stop offset="1" stop-color="#BABAB9"/>
</linearGradient>
<linearGradient id="paint1_linear_101_1033" x1="20.9777" y1="40.8653" x2="20.9777" y2="25.7819" gradientUnits="userSpaceOnUse">
<stop stop-color="#F6D6C1"/>
<stop offset="0.2519" stop-color="#F2D2BE"/>
<stop offset="0.4977" stop-color="#E6C8B3"/>
<stop offset="0.7409" stop-color="#D3B6A2"/>
<stop offset="0.9813" stop-color="#B79D8A"/>
<stop offset="1" stop-color="#B59B88"/>
</linearGradient>
<linearGradient id="paint2_linear_101_1033" x1="20.2293" y1="41.3512" x2="20.2293" y2="34.9525" gradientUnits="userSpaceOnUse">
<stop offset="0.4861" stop-color="#F5F5F5"/>
<stop offset="1" stop-color="#F2F2F2"/>
</linearGradient>
<radialGradient id="paint3_radial_101_1033" cx="0" cy="0" r="1" gradientUnits="userSpaceOnUse" gradientTransform="translate(16.4763 35.4538) scale(3.82815)">
<stop stop-color="#8A8A8A"/>
<stop offset="0.0928131" stop-color="#A0A0A0"/>
<stop offset="0.2404" stop-color="#BEBEBE"/>
<stop offset="0.3971" stop-color="#D5D5D5"/>
<stop offset="0.5649" stop-color="#E5E5E5"/>
<stop offset="0.7517" stop-color="#EFEFEF"/>
<stop offset="0.995" stop-color="#F2F2F2"/>
</radialGradient>
<radialGradient id="paint4_radial_101_1033" cx="0" cy="0" r="1" gradientUnits="userSpaceOnUse" gradientTransform="translate(22.6838 35.1925) scale(3.98812 3.98812)">
<stop stop-color="#8A8A8A"/>
<stop offset="0.0928131" stop-color="#A0A0A0"/>
<stop offset="0.2404" stop-color="#BEBEBE"/>
<stop offset="0.3971" stop-color="#D5D5D5"/>
<stop offset="0.5649" stop-color="#E5E5E5"/>
<stop offset="0.7517" stop-color="#EFEFEF"/>
<stop offset="0.995" stop-color="#F2F2F2"/>
</radialGradient>
</defs>
</svg>
