<svg width="40" height="40" viewBox="0 0 40 40" fill="none" xmlns="http://www.w3.org/2000/svg">
<mask id="mask0_101_935" style="mask-type:alpha" maskUnits="userSpaceOnUse" x="0" y="0" width="40" height="40">
<path d="M20 40C31.0457 40 40 31.0457 40 20C40 8.95431 31.0457 0 20 0C8.9543 0 0 8.95431 0 20C0 31.0457 8.9543 40 20 40Z" fill="white"/>
</mask>
<g mask="url(#mask0_101_935)">
<path d="M39.9914 0.0085907H0V40H39.9914V0.0085907Z" fill="#DBDBDB"/>
<path d="M26.323 27.4999C26.323 27.4999 26.3832 32.5343 27.0533 33.024C27.7234 33.5137 30.3265 34.8539 30.3265 34.8539L30.6959 34.7164C30.6959 34.7164 30.4725 34.5789 31.0653 35.1374C31.6581 35.7044 33.445 35.9793 33.445 35.9793L36.7955 37.6717C36.7955 37.6717 38.8832 38.7284 38.8832 39.1494C38.8832 39.5704 38.8832 39.5704 38.8832 39.5704H2.1134L5.54124 36.8298L8.14433 36.2628C8.14433 36.2628 9.0378 35.2748 9.48454 35.4209C9.93127 35.5583 9.93127 35.5583 9.93127 35.5583L13.1357 33.5308C13.1357 33.5308 14.0292 32.603 13.9519 31.1941C13.8746 29.7851 13.8746 27.4999 13.8746 27.4999H26.323V27.4999Z" fill="url(#paint0_linear_101_935)"/>
<path d="M12.1649 20.6443C12.1649 20.6443 11.4003 18.5566 11.4605 17.6546C11.7268 13.3161 10.9536 13.3247 10.8419 12.9553C10.0429 10.3865 10.8333 7.62881 12.7062 6.21987C14.5962 4.80235 15.0773 4.87967 16.7096 4.87967C18.3505 4.87967 18.9261 4.21816 19.622 4.24393C22.3282 4.34702 22.8179 4.66489 22.8179 4.66489C23.2388 4.61335 23.6598 4.70785 24.012 4.93121C24.5533 5.26627 25.0429 5.46386 25.2319 6.0051C25.524 6.81266 26.1598 5.88482 27.3024 6.73534C27.4313 6.82984 27.5773 6.99307 27.5773 6.99307C27.5773 6.99307 29.8797 7.5429 29.0979 12.3367C28.299 17.2078 28.9175 18.1786 28.3935 18.4536C27.8608 18.7199 27.5086 19.8024 27.5086 19.8024C27.5086 19.8024 27.3625 11.2886 24.9742 11.3573C22.5945 11.4261 20.8505 12.6288 15.0773 11.3573C13.8058 11.0824 11.4948 18.9604 12.1649 20.6443Z" fill="#525252"/>
<path d="M12.0962 23.7456C12.0962 23.7456 12.0189 27.8951 15.8935 30.3608C19.768 32.8264 22.8179 30.7817 22.8179 30.7817C22.8179 30.7817 26.9072 27.7577 26.9845 26.1339C27.0618 24.5188 27.6546 23.7456 27.6546 23.7456C27.6546 23.7456 28.1014 23.7456 28.402 23.3934C28.7027 23.0412 28.7715 20.7903 28.9948 20.1546C29.2182 19.5188 29.3642 18.4621 28.6254 18.5394C27.878 18.6082 27.5086 19.8023 27.5086 19.8023C27.5086 19.8023 27.6546 17.835 27.2079 16.5635C26.7612 15.3006 27.5773 12.4827 25.7904 11.426C24.0034 10.3693 21.7268 10.7216 20.6357 11.0738C19.5447 11.426 17.2337 11.2113 15.8161 10.7216C14.3986 10.2319 13.213 12.5515 12.9897 13.6082C12.7663 14.6649 12.0189 18.9518 12.0962 19.8023C12.1735 20.6443 12.1735 20.6443 12.1735 20.6443C12.1735 20.6443 11.6495 18.3934 11.2027 18.2559C10.756 18.1185 9.93985 18.1185 10.0859 19.8023C10.2319 21.4948 10.4124 20.1803 11.0567 23.3247C11.4261 25.146 12.0962 23.7456 12.0962 23.7456Z" fill="#F6D6C1"/>
<path d="M39.4072 40C39.5533 38.5223 35.0687 36.7354 33.4536 35.9192C31.8385 35.1031 30.6271 34.3728 29.957 34.0893C29.2869 33.8058 27.8522 33.3333 27.8522 33.3333L27.5859 33.78C27.5859 33.78 26.2371 36.7611 19.9399 36.7611C15.4467 36.7611 13.1357 33.4708 13.1357 33.4708C11.7182 33.8745 8.50515 35.3093 7.92955 35.8505C7.34536 36.3917 6.70103 36.7268 5.97938 36.6752C5.15464 36.6151 2.15635 39.4845 1.49484 40.0086H37.1478L39.4072 40Z" fill="#BABAB9"/>
<path d="M11.6409 18.8917C11.6409 18.8917 12.1735 22.6975 12.0876 23.3247C12.0017 23.9432 11.7354 25.8075 12.0017 27.4913C12.268 29.1752 12.8866 31.1253 13.6856 31.9243C14.4845 32.7233 15.7217 33.6941 15.7217 33.6941C15.7217 33.6941 15.6357 33.4278 15.7217 33.2473C15.8076 33.0669 15.8076 33.9518 16.0739 34.3126C16.3402 34.6649 17.7577 34.7594 17.7577 34.7594C17.7577 34.7594 20.3265 35.6443 21.2973 34.8453C21.2973 34.8453 21.6495 35.1975 22.1821 34.8453C22.7148 34.493 25.5498 33.78 26.0825 31.8298C26.0825 31.8298 27.4141 28.7284 27.5 26.5119C27.5859 24.2955 27.5 23.591 27.5 23.591C27.5 23.591 27.4141 19.6906 27.7663 19.0721C28.1186 18.4535 27.5859 18.4535 27.5859 18.4535C27.5859 18.4535 27.1392 20.4896 27.1392 21.2886C27.1392 22.0875 26.5206 25.0944 25.8076 25.4552C25.1031 25.8075 23.4708 26.6924 21.9072 27.5772C21.2887 27.9295 18.5395 27.7577 17.8351 27.5772C16.6065 27.268 16.6839 26.2456 15.1804 25.8075C15.1804 25.8075 12.7921 25.1889 12.6976 24.4759C12.6117 23.7714 11.9931 20.0429 11.9931 18.4535C11.9931 16.8556 11.6409 18.8917 11.6409 18.8917Z" fill="#525252"/>
<path d="M19.9313 24.1838C19.7337 24.2354 19.5275 24.2354 19.3385 24.1752C18.8488 24.012 17.9296 23.823 16.9588 24.2869C15.7303 24.8625 15.8935 25.8849 14.3901 25.6185C12.8866 25.3522 13.0584 25.3522 13.0584 25.3522C13.0584 25.3522 13.4107 26.4175 14.2096 26.7697C15.0086 27.122 18.1186 26.1684 18.6426 25.9708C19.6134 25.6014 21.2114 25.9708 21.2114 25.9708C21.2114 25.9708 23.4279 26.9587 24.7509 26.7869C26.0825 26.6065 26.787 25.3694 26.787 25.3694C26.787 25.3694 25.1031 26.3402 24.2182 25.902C23.3334 25.4553 22.8007 24.1924 21.8299 24.0979C21.1512 24.0292 20.3866 24.0636 19.9313 24.1838Z" fill="#525252"/>
</g>
<defs>
<linearGradient id="paint0_linear_101_935" x1="20.5029" y1="40.4195" x2="20.5029" y2="25.8454" gradientUnits="userSpaceOnUse">
<stop stop-color="#F6D6C1"/>
<stop offset="0.2519" stop-color="#F2D2BE"/>
<stop offset="0.4977" stop-color="#E6C8B3"/>
<stop offset="0.7409" stop-color="#D3B6A2"/>
<stop offset="0.9813" stop-color="#B79D8A"/>
<stop offset="1" stop-color="#B59B88"/>
</linearGradient>
</defs>
</svg>
