<svg width="16" height="16" viewBox="0 0 16 16" fill="none" xmlns="http://www.w3.org/2000/svg">
<path d="M6.66667 2H2.66667C2.48986 2 2.32029 2.07024 2.19526 2.19526C2.07024 2.32029 2 2.48986 2 2.66667V6.66667C2 6.84348 2.07024 7.01305 2.19526 7.13807C2.32029 7.2631 2.48986 7.33333 2.66667 7.33333H6.66667C6.84348 7.33333 7.01305 7.2631 7.13807 7.13807C7.2631 7.01305 7.33333 6.84348 7.33333 6.66667V2.66667C7.33333 2.48986 7.2631 2.32029 7.13807 2.19526C7.01305 2.07024 6.84348 2 6.66667 2V2ZM13.3333 8.66667H9.33333C9.15652 8.66667 8.98695 8.7369 8.86193 8.86193C8.7369 8.98695 8.66667 9.15652 8.66667 9.33333V13.3333C8.66667 13.5101 8.7369 13.6797 8.86193 13.8047C8.98695 13.9298 9.15652 14 9.33333 14H13.3333C13.5101 14 13.6797 13.9298 13.8047 13.8047C13.9298 13.6797 14 13.5101 14 13.3333V9.33333C14 9.15652 13.9298 8.98695 13.8047 8.86193C13.6797 8.7369 13.5101 8.66667 13.3333 8.66667ZM11.3333 2C9.86267 2 8.66667 3.196 8.66667 4.66667C8.66667 6.13733 9.86267 7.33333 11.3333 7.33333C12.804 7.33333 14 6.13733 14 4.66667C14 3.196 12.804 2 11.3333 2ZM4.66667 8.66667C3.196 8.66667 2 9.86267 2 11.3333C2 12.804 3.196 14 4.66667 14C6.13733 14 7.33333 12.804 7.33333 11.3333C7.33333 9.86267 6.13733 8.66667 4.66667 8.66667Z" fill="#00304A"/>
</svg>
