<svg width="6" height="8" viewBox="0 0 6 8" fill="none" xmlns="http://www.w3.org/2000/svg">
<path d="M1.19338 0.473338C1.13157 0.535014 1.08254 0.608273 1.04909 0.688922C1.01563 0.769571 0.998413 0.856026 0.998413 0.943338C0.998413 1.03065 1.01563 1.11711 1.04909 1.19775C1.08254 1.2784 1.13157 1.35166 1.19338 1.41334L3.78004 4L1.19338 6.58667C1.13165 6.64839 1.08269 6.72167 1.04929 6.80231C1.01589 6.88295 0.998695 6.96938 0.998695 7.05667C0.998695 7.14396 1.01589 7.23039 1.04929 7.31103C1.08269 7.39168 1.13165 7.46495 1.19338 7.52667C1.2551 7.58839 1.32837 7.63735 1.40901 7.67076C1.48966 7.70416 1.57609 7.72135 1.66338 7.72135C1.75066 7.72135 1.8371 7.70416 1.91774 7.67076C1.99838 7.63735 2.07165 7.58839 2.13338 7.52667L5.19338 4.46667C5.25518 4.405 5.30421 4.33174 5.33766 4.25109C5.37112 4.17044 5.38834 4.08398 5.38834 3.99667C5.38834 3.90936 5.37112 3.8229 5.33766 3.74225C5.30421 3.66161 5.25518 3.58835 5.19338 3.52667L2.13338 0.466671C1.88004 0.213338 1.45338 0.213338 1.19338 0.473338Z" fill="url(#paint0_linear_42_2525)"/>
<defs>
<linearGradient id="paint0_linear_42_2525" x1="1.13706" y1="7.48645" x2="7.14763" y2="3.94169" gradientUnits="userSpaceOnUse">
<stop stop-color="#23CF7F"/>
<stop offset="0.244792" stop-color="#14BCB6"/>
<stop offset="0.541667" stop-color="#09AEDE"/>
<stop offset="0.729167" stop-color="#02A6F6"/>
<stop offset="1" stop-color="#00A3FF"/>
</linearGradient>
</defs>
</svg>
