<svg xmlns="http://www.w3.org/2000/svg" width="11" height="14" fill="none"><rect id="backgroundrect" width="100%" height="100%" x="0" y="0" fill="none" stroke="none"/>

<g class="currentLayer" style=""><title>Layer 1</title><path d="M1.3333299295806884,4.666663969116211 H7.333329929580689 V3.333333969116211 C7.333329929580689,2.777773969116211 7.138889929580689,2.305553969116211 6.749999929580689,1.916663969116211 C6.361109929580689,1.527773969116211 5.888889929580689,1.333333969116211 5.333329929580689,1.333333969116211 C4.777769929580688,1.333333969116211 4.305549929580688,1.527773969116211 3.916659929580689,1.916663969116211 C3.527769929580688,2.305553969116211 3.333329929580689,2.777773969116211 3.333329929580689,3.333333969116211 H1.9999999295806887 C1.9999999295806887,2.411113969116211 2.3251099295806883,1.624883969116211 2.9753299295806883,0.9746639691162109 C3.625109929580688,0.3248889691162109 4.411109929580689,-3.088378897064814e-8 5.333329929580689,-3.088378897064814e-8 C6.255549929580688,-3.088378897064814e-8 7.041769929580688,0.3248889691162109 7.692039929580689,0.9746639691162109 C8.341739929580688,1.624883969116211 8.666639929580688,2.411113969116211 8.666639929580688,3.333333969116211 V4.666663969116211 H9.333339929580688 C9.700039929580688,4.666663969116211 10.014039929580688,4.797113969116211 10.275339929580689,5.058003969116211 C10.536239929580688,5.319333969116211 10.666639929580688,5.633333969116211 10.666639929580688,6.000003969116211 V12.66663396911621 C10.666639929580688,13.03333396911621 10.536239929580688,13.34733396911621 10.275339929580689,13.60863396911621 C10.014039929580688,13.869533969116212 9.700039929580688,14.000033969116211 9.333339929580688,14.000033969116211 H1.3333299295806884 C0.9666599295806888,14.000033969116211 0.6528899295806885,13.869533969116212 0.39199992958068863,13.60863396911621 C0.1306599295806885,13.34733396911621 -7.041931127105272e-8,13.03333396911621 -7.041931127105272e-8,12.66663396911621 V6.000003969116211 C-7.041931127105272e-8,5.633333969116211 0.1306599295806885,5.319333969116211 0.39199992958068863,5.058003969116211 C0.6528899295806885,4.797113969116211 0.9666599295806888,4.666663969116211 1.3333299295806884,4.666663969116211 zM5.333329929580689,10.66663396911621 C5.699999929580688,10.66663396911621 6.013999929580688,10.53623396911621 6.275329929580689,10.275333969116211 C6.536219929580689,10.01403396911621 6.666659929580689,9.70003396911621 6.666659929580689,9.333333969116211 C6.666659929580689,8.966663969116212 6.536219929580689,8.652663969116212 6.275329929580689,8.39133396911621 C6.013999929580688,8.130443969116211 5.699999929580688,8.00000396911621 5.333329929580689,8.00000396911621 C4.966659929580689,8.00000396911621 4.652889929580689,8.130443969116211 4.391999929580688,8.39133396911621 C4.1306599295806885,8.652663969116212 3.9999999295806887,8.966663969116212 3.9999999295806887,9.333333969116211 C3.9999999295806887,9.70003396911621 4.1306599295806885,10.01403396911621 4.391999929580688,10.275333969116211 C4.652889929580689,10.53623396911621 4.966659929580689,10.66663396911621 5.333329929580689,10.66663396911621 z" fill="#00A89E" id="svg_1" class=""/></g></svg>