<svg xmlns="http://www.w3.org/2000/svg" width="13" height="13" fill="none"><rect id="backgroundrect" width="100%" height="100%" x="0" y="0" fill="none" stroke="none"/>

<g class="currentLayer" style=""><title>Layer 1</title><path d="M1.3333299647903445,13.33328999195099 C0.9666599647903444,13.33328999195099 0.6528899647903441,13.20288999195099 0.39199996479034427,12.941989991950988 C0.13065996479034414,12.680689991950988 -3.520965563552636e-8,12.366689991950988 -3.520965563552636e-8,11.999989991950988 V5.333339991950989 C-3.520965563552636e-8,4.9666699919509885 0.13065996479034414,4.652669991950988 0.39199996479034427,4.391339991950989 C0.6528899647903441,4.1304499919509885 0.9666599647903444,3.9999999919509888 1.3333299647903445,3.9999999919509888 H2.666659964790344 V-8.04901123530044e-9 H7.999999964790344 V2.6666699919509886 H3.9999999647903444 V7.99999999195099 H5.3333299647903445 V3.9999999919509888 H11.999969964790344 C12.366669964790344,3.9999999919509888 12.680669964790344,4.1304499919509885 12.941969964790344,4.391339991950989 C13.202869964790345,4.652669991950988 13.333369964790345,4.9666699919509885 13.333369964790345,5.333339991950989 V11.999989991950988 C13.333369964790345,12.366689991950988 13.202869964790345,12.680689991950988 12.941969964790344,12.941989991950988 C12.680669964790344,13.20288999195099 12.366669964790344,13.33328999195099 11.999969964790344,13.33328999195099 H1.3333299647903445 z" fill="#00304A" id="svg_1" class=""/></g></svg>