<svg width="16" height="16" viewBox="0 0 16 16" fill="none" xmlns="http://www.w3.org/2000/svg">
<g clip-path="url(#clip0_101_8558)">
<path d="M8 14.6667C11.682 14.6667 14.6667 11.682 14.6667 8.00001C14.6667 4.31801 11.682 1.33334 8 1.33334C4.318 1.33334 1.33334 4.31801 1.33334 8.00001C1.33334 11.682 4.318 14.6667 8 14.6667Z" stroke="#00304A" stroke-width="1.33333" stroke-linecap="round" stroke-linejoin="round"/>
<path d="M10.6667 5.33336C10.1714 4.96193 9.58256 4.73575 8.96602 4.68016C8.34949 4.62456 7.72965 4.74175 7.17596 5.0186C6.62227 5.29544 6.15662 5.721 5.83117 6.24758C5.50572 6.77417 5.33334 7.38098 5.33334 8.00002C5.33334 8.61906 5.50572 9.22587 5.83117 9.75246C6.15662 10.279 6.62227 10.7046 7.17596 10.9814C7.72965 11.2583 8.34949 11.3755 8.96602 11.3199C9.58256 11.2643 10.1714 11.0381 10.6667 10.6667M4.66667 7.00002H8.00001M8.00001 9.00002H4.66667" stroke="#00304A" stroke-width="1.33333" stroke-linecap="round" stroke-linejoin="round"/>
</g>
<defs>
<clipPath id="clip0_101_8558">
<rect width="16" height="16" fill="white"/>
</clipPath>
</defs>
</svg>
