<svg width="16" height="16" viewBox="0 0 16 16" fill="none" xmlns="http://www.w3.org/2000/svg">
<path d="M6.66668 13.3333H4.00001C3.81112 13.3333 3.65267 13.2693 3.52467 13.1413C3.39712 13.0138 3.33334 12.8556 3.33334 12.6667V8.00001H2.20001C2.04445 8.00001 1.9389 7.92779 1.88334 7.78334C1.82779 7.6389 1.86112 7.51668 1.98334 7.41668L7.55001 2.40001C7.67223 2.27779 7.82223 2.21667 8.00001 2.21667C8.17779 2.21667 8.32779 2.27779 8.45001 2.40001L10.6667 4.40001V3.33334C10.6667 3.14445 10.7307 2.98601 10.8587 2.85801C10.9862 2.73045 11.1445 2.66667 11.3333 2.66667H12C12.1889 2.66667 12.3471 2.73045 12.4747 2.85801C12.6027 2.98601 12.6667 3.14445 12.6667 3.33334V6.20001L14.0167 7.41668C14.1389 7.51668 14.1722 7.6389 14.1167 7.78334C14.0611 7.92779 13.9556 8.00001 13.8 8.00001H12.6667V12.6667C12.6667 12.8556 12.6027 13.0138 12.4747 13.1413C12.3471 13.2693 12.1889 13.3333 12 13.3333H9.33334V10C9.33334 9.81112 9.26956 9.65267 9.14201 9.52467C9.01401 9.39712 8.85556 9.33334 8.66668 9.33334H7.33334C7.14445 9.33334 6.98623 9.39712 6.85868 9.52467C6.73068 9.65267 6.66668 9.81112 6.66668 10V13.3333ZM6.66668 6.68334H9.33334C9.33334 6.32779 9.20001 6.03601 8.93334 5.80801C8.66667 5.58045 8.35556 5.46667 8.00001 5.46667C7.64445 5.46667 7.33334 5.58045 7.06668 5.80801C6.80001 6.03601 6.66668 6.32779 6.66668 6.68334Z" fill="#00304A"/>
</svg>
