<svg width="16" height="16" viewBox="0 0 16 16" fill="none" xmlns="http://www.w3.org/2000/svg">
<path d="M8.56667 8.06668C8.45556 8.17779 8.33333 8.20556 8.2 8.15001C8.06667 8.09445 8 7.9889 8 7.83334V2.63334C8 2.44445 8.064 2.28601 8.192 2.15801C8.31956 2.03045 8.47778 1.96667 8.66667 1.96667H13.3333C13.5222 1.96667 13.6804 2.03045 13.808 2.15801C13.936 2.28601 14 2.44445 14 2.63334V5.96667C14 6.15556 13.936 6.31379 13.808 6.44134C13.6804 6.56934 13.5222 6.63334 13.3333 6.63334H10L8.56667 8.06668ZM13.3 14C11.8667 14 10.4696 13.6805 9.10867 13.0413C7.74733 12.4027 6.54178 11.5582 5.492 10.508C4.44178 9.45823 3.59733 8.25268 2.95867 6.89134C2.31956 5.53045 2 4.13334 2 2.70001C2 2.50001 2.06667 2.33334 2.2 2.20001C2.33333 2.06667 2.5 2.00001 2.7 2.00001H5.4C5.55556 2.00001 5.69444 2.05001 5.81667 2.15001C5.93889 2.25001 6.01111 2.37779 6.03333 2.53334L6.46667 4.86668C6.48889 5.02223 6.48622 5.16379 6.45867 5.29134C6.43067 5.41934 6.36667 5.53334 6.26667 5.63334L4.66667 7.26667C5.13333 8.06667 5.71667 8.81667 6.41667 9.51667C7.11667 10.2167 7.88889 10.8222 8.73333 11.3333L10.3 9.76667C10.4 9.66667 10.5307 9.59156 10.692 9.54134C10.8529 9.49156 11.0111 9.47779 11.1667 9.50001L13.4667 9.96668C13.6222 10 13.75 10.0749 13.85 10.1913C13.95 10.3082 14 10.4445 14 10.6V13.3C14 13.5 13.9333 13.6667 13.8 13.8C13.6667 13.9333 13.5 14 13.3 14Z" fill="#00304A"/>
</svg>
