<svg width="13" height="12" viewBox="0 0 13 12" fill="none" xmlns="http://www.w3.org/2000/svg">
<g clip-path="url(#clip0_101_4548)">
<path opacity="0.2" d="M6.59596 2.625C2.84596 2.625 1.34596 6 1.34596 6C1.34596 6 2.84596 9.375 6.59596 9.375C10.346 9.375 11.846 6 11.846 6C11.846 6 10.346 2.625 6.59596 2.625ZM6.59596 7.875C6.22512 7.875 5.86261 7.76503 5.55427 7.55901C5.24593 7.35298 5.0056 7.06014 4.86369 6.71753C4.72177 6.37492 4.68464 5.99792 4.75699 5.63421C4.82934 5.27049 5.00791 4.9364 5.27014 4.67417C5.53236 4.41195 5.86645 4.23337 6.23017 4.16103C6.59388 4.08868 6.97088 4.12581 7.31349 4.26773C7.65611 4.40964 7.94894 4.64996 8.15497 4.95831C8.361 5.26665 8.47096 5.62916 8.47096 6C8.47096 6.49728 8.27342 6.97419 7.92179 7.32583C7.57016 7.67746 7.09324 7.875 6.59596 7.875Z" fill="#AFB2B5"/>
<path d="M12.1881 5.85C12.1741 5.8125 11.7756 4.93125 10.8944 4.04531C9.71783 2.87344 8.2319 2.25 6.59596 2.25C4.96002 2.25 3.47408 2.87344 2.29752 4.04531C1.41627 4.93125 1.01783 5.8125 1.00377 5.85C0.982842 5.89724 0.972031 5.94833 0.972031 6C0.972031 6.05167 0.982842 6.10276 1.00377 6.15C1.01783 6.1875 1.41627 7.06875 2.29752 7.95469C3.47408 9.12656 4.96002 9.75 6.59596 9.75C8.2319 9.75 9.71783 9.12656 10.8944 7.95469C11.7756 7.06875 12.1741 6.1875 12.1881 6.15C12.2091 6.10276 12.2199 6.05167 12.2199 6C12.2199 5.94833 12.2091 5.89724 12.1881 5.85ZM6.59596 9C5.15221 9 3.89127 8.475 2.85065 7.43906C2.42058 7.01552 2.05568 6.53056 1.76783 6C2.05529 5.46779 2.42021 4.98123 2.85065 4.55625C3.89127 3.525 5.15221 3 6.59596 3C8.03971 3 9.30065 3.525 10.3413 4.55625C10.7717 4.98123 11.1366 5.46779 11.4241 6C11.0866 6.63281 9.61471 9 6.59596 9Z" fill="#AFB2B5"/>
<path d="M6.59596 3.75C6.15096 3.75 5.71594 3.88196 5.34593 4.12919C4.97592 4.37643 4.68753 4.72783 4.51723 5.13896C4.34694 5.5501 4.30238 6.0025 4.3892 6.43895C4.47601 6.87541 4.69031 7.27632 5.00497 7.59099C5.31964 7.90566 5.72055 8.11995 6.15701 8.20677C6.59347 8.29358 7.04587 8.24903 7.457 8.07873C7.86813 7.90843 8.21954 7.62004 8.46677 7.25003C8.714 6.88002 8.84596 6.44501 8.84596 6C8.84596 5.40326 8.60891 4.83097 8.18695 4.40901C7.765 3.98705 7.1927 3.75 6.59596 3.75ZM6.59596 7.5C6.29929 7.5 6.00928 7.41203 5.76261 7.2472C5.51593 7.08238 5.32368 6.84811 5.21014 6.57402C5.09661 6.29994 5.06691 5.99834 5.12479 5.70736C5.18266 5.41639 5.32552 5.14912 5.5353 4.93934C5.74508 4.72956 6.01236 4.5867 6.30333 4.52882C6.5943 4.47094 6.8959 4.50065 7.16999 4.61418C7.44408 4.72771 7.67835 4.91997 7.84317 5.16664C8.00799 5.41332 8.09596 5.70333 8.09596 6C8.09473 6.39744 7.9363 6.77826 7.65526 7.05929C7.37422 7.34033 6.99341 7.49876 6.59596 7.5Z" fill="#AFB2B5"/>
</g>
<defs>
<clipPath id="clip0_101_4548">
<rect width="12" height="12" fill="white" transform="translate(0.595963)"/>
</clipPath>
</defs>
</svg>
