<svg xmlns="http://www.w3.org/2000/svg" width="12" height="12" fill="none"><rect id="backgroundrect" width="100%" height="100%" x="0" y="0" fill="none" stroke="none"/>

<g class="currentLayer" style=""><title>Layer 1</title><path d="M6.56667,6.100009963684082 C6.45556,6.211119963684082 6.33333,6.238889963684082 6.199999999999999,6.183339963684082 C6.06667,6.127779963684082 6,6.022229963684082 6,5.866669963684082 V0.666669963684082 C6,0.47777996368408227 6.064,0.31933996368408213 6.192,0.19133996368408202 C6.319559999999999,0.06377996368408212 6.477779999999999,-3.6315917828488864e-8 6.66667,-3.6315917828488864e-8 H11.3333 C11.5222,-3.6315917828488864e-8 11.6804,0.06377996368408212 11.808,0.19133996368408202 C11.936,0.31933996368408213 12,0.47777996368408227 12,0.666669963684082 V3.9999999636840826 C12,4.188889963684082 11.936,4.347119963684082 11.808,4.474669963684082 C11.6804,4.602669963684082 11.5222,4.6666699636840825 11.3333,4.6666699636840825 H8 L6.56667,6.100009963684082 zM11.3,12.033329963684082 C9.8667,12.033329963684082 8.4696,11.713829963684082 7.10867,11.074629963684082 C5.74733,10.436029963684081 4.54178,9.591529963684081 3.492,8.541329963684081 C2.4417799999999996,7.491559963684082 1.59733,6.286009963684082 0.9586700000000001,4.9246699636840825 C0.31956000000000007,3.563779963684082 0,2.1666699636840825 0,0.7333399636840818 C0,0.5333399636840821 0.06667000000000023,0.3666699636840822 0.20000000000000018,0.23333996368408183 C0.3333300000000001,0.09999996368408226 0.5,0.0333399636840821 0.7000000000000002,0.0333399636840821 H3.4000000000000004 C3.55556,0.0333399636840821 3.69444,0.08333996368408192 3.8166700000000002,0.183339963684082 C3.93889,0.2833399636840821 4.01111,0.4111199636840821 4.03333,0.566669963684082 L4.46667,2.9000099636840826 C4.48889,3.0555599636840824 4.48622,3.1971199636840817 4.45867,3.324669963684082 C4.43067,3.452669963684082 4.36667,3.566669963684082 4.26667,3.6666699636840825 L2.66667,5.299999963684082 C3.13333,6.099999963684082 3.7166700000000006,6.849999963684082 4.41667,7.5499999636840815 C5.11667,8.250029963684081 5.88889,8.855529963684083 6.7333300000000005,9.366629963684082 L8.3,7.7999999636840815 C8.4,7.699999963684082 8.5307,7.6248899636840815 8.692,7.574669963684082 C8.8529,7.524889963684082 9.0111,7.511119963684083 9.1667,7.533339963684082 L11.4667,8.000009963684082 C11.6222,8.033329963684082 11.75,8.108229963684082 11.85,8.224629963684082 C11.95,8.341529963684081 12,8.477829963684082 12,8.633329963684082 V11.333329963684083 C12,11.533329963684082 11.9333,11.700029963684083 11.8,11.833329963684083 C11.6667,11.966629963684081 11.5,12.033329963684082 11.3,12.033329963684082 z" fill="#00304A" id="svg_1" class=""/></g></svg>