<svg width="126" height="40" viewBox="0 0 126 40" fill="none" xmlns="http://www.w3.org/2000/svg">
<g clip-path="url(#clip0_42_2421)">
<path d="M23.7975 22.4211V30.2996C21.6275 29.2875 19.4574 28.3806 16.8016 27.2713C5.19831 22.4211 1.17403 20.5992 0.890625 17.7166C0.971597 16.7368 1.15783 15.4413 1.27929 14.4615C1.57079 13.0688 2.03232 11.2389 2.42099 9.87045C1.62747 12.5587 8.56674 15.7814 17.7327 19.7247C20.1052 20.7449 22.0323 21.5871 23.7975 22.4211Z" fill="#FDFDFD"/>
<path d="M23.7976 33.7652V40C20.745 38.6235 17.5466 37.3765 14.8259 36.3158C5.40893 32.6397 2.92309 31.4899 2.00002 29.498L1.61135 27.9676C1.05265 25.2389 1.02026 24.7449 0.825928 21.5223C1.17411 24.0405 5.06884 25.8786 14.5263 29.7814C17.579 31.0445 20.7612 32.3563 23.7976 33.7652Z" fill="#FDFDFD"/>
<path d="M21.3685 10.8664L20.7936 10.7692L16.6964 10.0972L17.6438 12.1781C15.8705 12.9555 13.9839 13.749 11.9029 14.6235C3.44135 18.1781 1.16605 19.1336 0.817871 21.5304C0.939329 24.3482 1.03649 24.9069 1.60329 27.9757L1.99196 29.5061C1.84621 28.0243 2.89074 27.166 5.90289 25.4737C10.6235 22.8259 15.579 20.6802 20.5021 18.4453L21.3442 20.2834L26.6073 11.7247L21.3685 10.8664Z" fill="#FDFDFD"/>
<path d="M27.5141 1.54656L18.0809 0L19.0283 2.08097C15.838 3.38462 12.8501 4.47773 10.8178 5.22267C5.16593 7.28745 3.27119 8.20243 2.41289 9.87045C2.01613 11.2308 1.56269 13.0769 1.27119 14.4615C1.11734 15.4008 0.995888 16.6478 0.890625 17.6113C1.18212 15.5385 4.59913 14.1457 10.7206 11.6599C13.8299 10.3968 17.587 8.8664 21.336 7.1417L22.4939 9.67611L27.5141 1.54656Z" fill="#FDFDFD"/>
<path d="M5.5465 13.8461C5.33597 13.9514 0.437182 16.5182 1.39265 19.1417C1.10115 18.6882 0.939208 18.2186 0.890625 17.7166C0.931111 17.255 0.987791 16.7287 1.05257 16.1943C0.995888 16.6882 0.947306 17.1822 0.898723 17.6194C1.10115 16.2267 2.6882 15.1498 5.5465 13.8461Z" fill="#FDFDFD"/>
<path d="M3.66007 12.4453L1.34428 14.1943C1.32808 14.2834 1.30379 14.3725 1.2876 14.4615C1.30379 14.3725 1.32808 14.2834 1.34428 14.1943C1.44954 13.7004 1.5791 13.1579 1.70865 12.6073C1.72485 12.5587 1.73294 12.5101 1.74914 12.4534C1.96776 11.5465 2.21068 10.6316 2.4374 9.86234C2.18638 10.6801 2.64792 11.5304 3.66007 12.4453Z" fill="#FDFDFD"/>
<path d="M23.7977 22.4129V30.2915C21.6277 29.2793 19.4576 28.3724 16.8018 27.2631C13.6196 25.9352 11.0042 24.834 8.88275 23.8704C5.10947 22.1619 2.88275 20.9069 1.77344 19.6356C2.86655 18.5425 5.0366 17.5222 9.09328 15.7975C11.5224 17.0121 14.4779 18.3158 17.7006 19.7004C17.7168 19.7085 17.7249 19.7085 17.741 19.7166C20.1054 20.7449 22.0325 21.587 23.7977 22.4129Z" fill="#FDFDFD"/>
<path d="M23.7976 33.7652V40C20.745 38.6235 17.5466 37.3765 14.8259 36.3158C5.40893 32.6397 2.92309 31.4899 2.00002 29.498L1.61135 27.9676C1.05265 25.2389 1.02026 24.7449 0.825928 21.5223C1.17411 24.0405 5.06884 25.8786 14.5263 29.7814C17.579 31.0445 20.7612 32.3563 23.7976 33.7652Z" fill="#FDFDFD"/>
<path d="M26.6073 11.7247L21.3442 20.2834L20.5021 18.4453C19.5628 18.8664 18.6316 19.2874 17.6924 19.7166C14.7288 21.0526 11.7652 22.3968 8.87455 23.8866C7.8786 24.3968 6.88265 24.9231 5.90289 25.4737C5.72475 25.5708 5.55471 25.668 5.39277 25.7652C2.76929 27.2713 1.85431 28.1134 1.99196 29.5061L1.60329 27.9757C1.32799 26.4939 1.16605 25.5951 1.05269 24.7449C1.05269 24.7449 1.05269 24.7449 1.05269 24.7368C0.931231 23.83 0.874551 22.9798 0.817871 21.5223C0.923134 20.8016 1.19844 20.2105 1.77334 19.6437C2.86645 18.5506 5.0365 17.5304 9.09317 15.8057C9.94338 15.4413 10.8745 15.0526 11.9029 14.6235C13.9839 13.749 15.8705 12.9555 17.6438 12.1781L16.6964 10.0972L20.7936 10.7692L21.3685 10.8664L26.6073 11.7247Z" fill="#FDFDFD"/>
<path d="M3.66003 12.4453L1.34424 14.1943C1.4495 13.7004 1.57906 13.1579 1.70861 12.6073C1.72481 12.5587 1.7329 12.5101 1.7491 12.4534C1.96772 11.5465 2.21064 10.6316 2.43736 9.86234C2.18634 10.6801 2.64788 11.5304 3.66003 12.4453Z" fill="#FDFDFD"/>
<path d="M31.8057 22.9716V11.5708H40.1214V13.9028H34.3482V16.6073H39.7571V18.8745H34.3482V22.9635H31.8057V22.9716Z" fill="#FDFDFD"/>
<path d="M42.3401 22.9717V11.5547H44.8664V22.9636H42.3401V22.9717Z" fill="#FDFDFD"/>
<path d="M55.676 18.9717L55.514 15.3846V11.5547H58.0728V22.9636H55.8865L50.2104 15.6599L50.3076 19.4089V22.9636H47.7327V11.5547H49.9189L55.676 18.9717Z" fill="#FDFDFD"/>
<path d="M69.0284 21.0121H63.1741L62.3401 22.9716H59.6033L64.7207 11.5627H67.4899L72.6073 22.9716H69.8543L69.0284 21.0121ZM66.1134 14.1295L64.1377 18.7611H68.0648L66.1134 14.1295Z" fill="#FDFDFD"/>
<path d="M82.0891 18.9717L81.9271 15.3846V11.5547H84.4858V22.9636H82.2996L76.6235 15.6599L76.7206 19.4089V22.9636H74.1458V11.5547H76.332L82.0891 18.9717Z" fill="#FDFDFD"/>
<path d="M97.1903 21.5789C96.0162 22.7368 94.502 23.2551 92.8016 23.2551C88.4453 23.2551 86.7206 20.4534 86.7044 17.336C86.6883 14.3887 88.6154 11.2874 92.8016 11.2874C94.3644 11.2874 95.8219 11.8866 96.9878 13.0445L95.3927 14.6235C94.7044 13.9514 93.7166 13.6761 92.8016 13.6761C90.2105 13.6761 89.1984 15.6842 89.2146 17.3441C89.2308 19.004 90.1295 20.8988 92.8016 20.8988C93.7166 20.8988 94.9231 20.4939 95.6032 19.8057L97.1903 21.5789Z" fill="#FDFDFD"/>
<path d="M99.0283 22.9717V11.5547H101.555V22.9636H99.0283V22.9717Z" fill="#FDFDFD"/>
<path d="M112.51 21.0121H106.656L105.822 22.9716H103.085L108.202 11.5627H110.972L116.089 22.9716H113.336L112.51 21.0121ZM109.595 14.1295L107.619 18.7611H111.546L109.595 14.1295Z" fill="#FDFDFD"/>
<path d="M120.178 11.5547V20.6397H125.887V22.9717H117.636V11.5547H120.178Z" fill="#FDFDFD"/>
<path d="M47.0688 28.6883C45.9271 28.6883 45.3846 27.8947 45.3846 27.0364C45.3765 26.1781 45.9352 25.3522 47.0688 25.3522C47.498 25.3522 47.9271 25.5142 48.251 25.8381L47.9757 26.0972C47.7247 25.8543 47.4008 25.7328 47.0688 25.7328C46.2024 25.7328 45.7814 26.3644 45.7814 27.0284C45.7895 27.6842 46.1943 28.2996 47.0688 28.2996C47.4008 28.2996 47.7409 28.1701 47.9919 27.9271L48.2753 28.2024C47.9433 28.5344 47.5061 28.6883 47.0688 28.6883Z" fill="#FDFDFD"/>
<path d="M52.421 27.0283C52.4129 27.8785 51.8866 28.7044 50.7773 28.7044C49.668 28.7044 49.1335 27.8785 49.1335 27.0283C49.1335 26.0891 49.7651 25.3441 50.7854 25.3441C51.8785 25.3522 52.4291 26.1781 52.421 27.0283ZM50.7854 25.7166C49.9595 25.7166 49.5384 26.3239 49.5384 27.0283C49.5384 27.6842 49.9352 28.3239 50.7854 28.3239C51.6356 28.3239 52.0161 27.668 52.0161 27.0283C52.0242 26.3725 51.6275 25.7247 50.7854 25.7166Z" fill="#FDFDFD"/>
<path d="M55.2876 27.6276H55.2066L54.0325 25.9838V28.6478H53.6357V25.4089H54.1135L55.2471 27.0769L56.3726 25.4089H56.8503V28.6478H56.4536V25.9919L55.2876 27.6276Z" fill="#FDFDFD"/>
<path d="M58.6721 28.6397H58.2754V25.4008H59.7491C61.2389 25.4008 61.2389 27.5871 59.7491 27.5952H58.6721V28.6397ZM59.7491 25.7814H58.6721V27.2227H59.7491C60.7045 27.2227 60.7045 25.7814 59.7491 25.7814Z" fill="#FDFDFD"/>
<path d="M63.3359 25.4008L64.7853 28.6397H64.3481L64.0323 27.9271H62.1861L61.8703 28.6397H61.4331L62.8825 25.4008H63.3359ZM63.1092 25.8138L62.34 27.5628H63.8784L63.1092 25.8138Z" fill="#FDFDFD"/>
<path d="M66.1376 25.4008L68.1215 27.8786V25.4008H68.5182V28.6397H68.2429L66.251 26.17V28.6397H65.8542V25.4008H66.1376Z" fill="#FDFDFD"/>
<path d="M69.6113 25.417V25.4008H70.1053L71.0769 26.9393L72.0729 25.4008H72.5668V25.417L71.2874 27.3279V28.6397H70.8745V27.3279L69.6113 25.417Z" fill="#FDFDFD"/>
<path d="M75.5952 28.2672H77.3604V28.6397H75.1985V25.4008H75.6033V28.2672H75.5952Z" fill="#FDFDFD"/>
<path d="M81.4007 27.0283C81.3926 27.8785 80.8663 28.7044 79.757 28.7044C78.6477 28.7044 78.1133 27.8785 78.1133 27.0283C78.1133 26.0891 78.7449 25.3441 79.7651 25.3441C80.8582 25.3522 81.4007 26.1781 81.4007 27.0283ZM79.7651 25.7166C78.9392 25.7166 78.5181 26.3239 78.5181 27.0283C78.5181 27.6842 78.9149 28.3239 79.7651 28.3239C80.6153 28.3239 80.9959 27.668 80.9959 27.0283C81.004 26.3725 80.6072 25.7247 79.7651 25.7166Z" fill="#FDFDFD"/>
<path d="M85.0606 26.0891C84.8096 25.8462 84.4291 25.7085 84.1052 25.7085C83.2712 25.7085 82.8177 26.332 82.8177 27.0445C82.8177 27.7004 83.2307 28.3158 84.1133 28.3158C84.421 28.3158 84.7287 28.2186 84.9959 27.9838V27.2146H83.9837V26.8583H85.3602V28.1377C85.0283 28.4858 84.6315 28.6883 84.1052 28.6883C82.9554 28.6883 82.421 27.9028 82.421 27.0364C82.4129 26.0729 83.0526 25.3279 84.1052 25.3279C84.5343 25.3279 84.9635 25.4899 85.2955 25.8138L85.0606 26.0891Z" fill="#FDFDFD"/>
<path d="M89.6922 27.0283C89.6841 27.8785 89.1578 28.7044 88.0485 28.7044C86.9392 28.7044 86.4048 27.8785 86.4048 27.0283C86.4048 26.0891 87.0364 25.3441 88.0566 25.3441C89.1578 25.3522 89.7003 26.1781 89.6922 27.0283ZM88.0566 25.7166C87.2307 25.7166 86.8096 26.3239 86.8096 27.0283C86.8096 27.6842 87.2064 28.3239 88.0566 28.3239C88.9068 28.3239 89.2874 27.668 89.2874 27.0283C89.2955 26.3725 88.9068 25.7247 88.0566 25.7166Z" fill="#FDFDFD"/>
<path d="M92.6477 25.4008H93.8299C94.9311 25.4008 95.4574 26.1863 95.4574 26.9879C95.4574 27.8138 94.9635 28.6397 93.8299 28.6397H92.6477V25.4008ZM95.0526 26.9798C95.0526 26.3806 94.6558 25.7895 93.8299 25.7895H93.0526V28.2429H93.8299C94.6882 28.2429 95.0526 27.6032 95.0526 26.9798Z" fill="#FDFDFD"/>
<path d="M96.6721 25.4008H98.9474V25.7733H97.0689V26.7854H98.8664V27.1579H97.0689V28.251H99.0203V28.6316H96.6721V25.4008Z" fill="#FDFDFD"/>
<path d="M101.32 25.6923C100.907 25.6923 100.47 25.8543 100.47 26.251C100.47 26.5992 100.874 26.7045 101.352 26.7855C102 26.8907 102.64 27.0203 102.64 27.749C102.632 28.4778 101.943 28.7126 101.32 28.7126C100.745 28.7126 100.202 28.5021 99.9514 27.9595L100.283 27.7652C100.494 28.1458 100.923 28.332 101.328 28.332C101.725 28.332 102.243 28.2106 102.243 27.7328C102.251 27.328 101.798 27.2146 101.312 27.1417C100.688 27.0446 100.081 26.8988 100.081 26.2429C100.073 25.5709 100.761 25.3361 101.32 25.3361C101.798 25.3361 102.259 25.4332 102.543 25.9271L102.235 26.1134C102.057 25.83 101.684 25.7004 101.32 25.6923Z" fill="#FDFDFD"/>
<path d="M103.83 25.4008H104.235V28.6397H103.83V25.4008Z" fill="#FDFDFD"/>
<path d="M108.097 26.0891C107.846 25.8462 107.466 25.7085 107.142 25.7085C106.308 25.7085 105.854 26.332 105.854 27.0445C105.854 27.7004 106.267 28.3158 107.15 28.3158C107.458 28.3158 107.765 28.2186 108.032 27.9838V27.2146H107.02V26.8583H108.397V28.1377C108.065 28.4858 107.668 28.6883 107.142 28.6883C105.992 28.6883 105.458 27.9028 105.458 27.0364C105.449 26.0729 106.089 25.3279 107.142 25.3279C107.571 25.3279 108 25.4899 108.332 25.8138L108.097 26.0891Z" fill="#FDFDFD"/>
<path d="M109.935 25.4008L111.919 27.8786V25.4008H112.316V28.6397H112.041L110.049 26.17V28.6397H109.652V25.4008H109.935Z" fill="#FDFDFD"/>
<path d="M43.4251 26.7773H31.8057V27.2632H43.4251V26.7773Z" fill="#FDFDFD"/>
<path d="M125.887 26.7773H114.267V27.2632H125.887V26.7773Z" fill="#FDFDFD"/>
</g>
<defs>
<clipPath id="clip0_42_2421">
<rect width="125.02" height="40" fill="white" transform="translate(0.842285)"/>
</clipPath>
</defs>
</svg>
