<svg width="110" height="40" viewBox="0 0 110 40" fill="none" xmlns="http://www.w3.org/2000/svg">
<g clip-path="url(#clip0_42_2362)">
<path d="M38.5246 17.8122C39.4635 17.4366 40.5339 17.2582 41.7358 17.2582V22.4131C41.21 22.3568 40.7781 22.3192 40.4401 22.3192C39.21 22.3192 38.2523 22.6479 37.5574 23.3146C36.8626 23.9812 36.5152 24.9953 36.5152 26.3662V33.8779H30.7781V17.5305H36.2429V19.4929C36.8344 18.7512 37.5856 18.1878 38.5246 17.8122Z" fill="#FDFDFD"/>
<path d="M47.4071 33.0704C45.9986 32.3474 44.9 31.3427 44.1019 30.0563C43.3038 28.7699 42.9094 27.3145 42.9094 25.6807C42.9094 24.0751 43.3038 22.6197 44.1019 21.3333C44.9 20.0469 45.9892 19.0422 47.3883 18.3286C48.7874 17.615 50.3742 17.2582 52.1395 17.2582C53.9047 17.2582 55.501 17.615 56.9094 18.3286C58.3179 19.0422 59.4165 20.0376 60.1958 21.3145C60.9845 22.5915 61.3695 24.0469 61.3695 25.6714C61.3695 27.2958 60.9751 28.7606 60.1958 30.0469C59.4071 31.3333 58.3179 32.338 56.9094 33.061C55.501 33.784 53.9141 34.1502 52.1395 34.1502C50.4024 34.1596 48.8155 33.7934 47.4071 33.0704ZM54.6183 28.554C55.2662 27.8591 55.5855 26.9014 55.5855 25.6714C55.5855 24.4601 55.2662 23.5211 54.6183 22.8357C53.9705 22.1502 53.1536 21.8122 52.1489 21.8122C51.1442 21.8122 50.3179 22.1502 49.67 22.8357C49.0221 23.5211 48.7029 24.4695 48.7029 25.6714C48.7029 26.9014 49.0221 27.8591 49.67 28.554C50.3179 29.2488 51.1348 29.5962 52.1489 29.5962C53.1536 29.5962 53.9798 29.2488 54.6183 28.554Z" fill="#FDFDFD"/>
<path d="M90.6748 17.5305L84.8532 33.8873H79.3039L76.2241 24.9859L73.0223 33.8873H67.473L61.6514 17.5305H67.0786L70.4307 27.4272L73.9049 17.5305H78.7969L82.1772 27.5211L85.6514 17.5305H90.6748Z" fill="#FDFDFD"/>
<path d="M96.2523 24.5634L92.5997 23.4272L95.5011 14.0939L85.9236 14.2723L85.8579 10.4413L100.722 10.169L96.2523 24.5634Z" fill="#FDFDFD"/>
<path d="M96.1337 0.0442303L92.5039 1.23962L94.3983 6.99193L98.0281 5.79654L96.1337 0.0442303Z" fill="#FDFDFD"/>
<path d="M104.257 14.2632L101.989 17.3392L106.985 21.0222L109.253 17.9461L104.257 14.2632Z" fill="#FDFDFD"/>
<path d="M106.962 3.48341L101.992 7.02698L104.211 10.1385L109.181 6.59495L106.962 3.48341Z" fill="#FDFDFD"/>
<path d="M21.5855 17.5587V19.5399C20.5057 18.0376 18.7968 17.2864 16.4775 17.2864C15.0315 17.2864 13.6982 17.615 12.4775 18.2629C11.2569 18.9108 10.2804 19.8404 9.55735 21.0329C8.83435 22.2253 8.47754 23.5868 8.47754 25.1361C8.47754 26.6948 8.83435 28.0751 9.55735 29.2676C10.2804 30.4601 11.2475 31.3803 12.4775 32.0375C12.6466 32.1314 12.825 32.216 12.994 32.2911C14.0738 32.7699 15.2287 33.0141 16.4682 33.0141C18.5902 33.0141 20.2052 32.3756 21.3132 31.0892V31.6338C21.3132 32.939 20.9658 33.9155 20.2616 34.5822C19.5574 35.2394 18.4588 35.5775 16.9564 35.5775C15.9705 35.5775 14.9752 35.4178 13.9611 35.108C13.1536 34.8545 12.4494 34.5352 11.8578 34.1315L9.5198 37.9249C10.4775 38.5822 11.6137 39.0798 12.947 39.4178C14.3555 39.7746 15.8578 39.953 17.4635 39.953C20.5527 39.953 22.9095 39.2019 24.5527 37.6807C26.1959 36.169 27.0221 33.8967 27.0221 30.8732V17.5587H21.5855ZM20.3743 27.5399C19.7076 28.1596 18.8531 28.4695 17.839 28.4695C17.0315 28.4695 16.3179 28.2723 15.7264 27.8779C15.5761 27.7746 15.4259 27.662 15.2851 27.5399C14.5996 26.9202 14.2616 26.1127 14.2616 25.1361C14.2616 24.1502 14.5996 23.3521 15.2663 22.7418C15.9329 22.1314 16.7968 21.8216 17.839 21.8216C18.8813 21.8216 19.7358 22.1221 20.393 22.7418C21.0503 23.3615 21.3883 24.1502 21.3883 25.1361C21.3789 26.1127 21.0409 26.9202 20.3743 27.5399Z" fill="#FDFDFD"/>
<path d="M5.5762 35.4836L0.308594 32.2348L2.65601 28.4413L7.92362 31.6902L5.5762 35.4836Z" fill="#FDFDFD"/>
</g>
<defs>
<clipPath id="clip0_42_2362">
<rect width="108.92" height="40" fill="white" transform="translate(0.327393)"/>
</clipPath>
</defs>
</svg>
