<svg width="16" height="16" viewBox="0 0 16 16" fill="none" xmlns="http://www.w3.org/2000/svg">
<path d="M14 12.6667H15.3333V14H0.666656V12.6667H1.99999V2.66667C1.99999 2.48986 2.07023 2.32029 2.19525 2.19526C2.32028 2.07024 2.48985 2 2.66666 2H9.33332C9.51013 2 9.6797 2.07024 9.80473 2.19526C9.92975 2.32029 9.99999 2.48986 9.99999 2.66667V12.6667H11.3333V6H13.3333C13.5101 6 13.6797 6.07024 13.8047 6.19526C13.9298 6.32029 14 6.48986 14 6.66667V12.6667ZM4.66666 7.33333V8.66667H7.33332V7.33333H4.66666ZM4.66666 4.66667V6H7.33332V4.66667H4.66666Z" fill="#00304A"/>
</svg>
