<svg width="16" height="16" viewBox="0 0 16 16" fill="none" xmlns="http://www.w3.org/2000/svg">
<path d="M8 7.33334C8.88406 7.33334 9.7319 7.68453 10.357 8.30965C10.9821 8.93478 11.3333 9.78262 11.3333 10.6667V14.6667H4.66667V10.6667C4.66667 9.78262 5.01786 8.93478 5.64298 8.30965C6.2681 7.68453 7.11595 7.33334 8 7.33334ZM3.52534 9.33734C3.41924 9.6952 3.35657 10.0645 3.33867 10.4373L3.33334 10.6667V14.6667H1.33334V11.6667C1.3332 11.0917 1.54535 10.537 1.92909 10.1088C2.31283 9.68066 2.84113 9.40926 3.41267 9.34668L3.526 9.33734H3.52534ZM12.4747 9.33734C13.0679 9.37351 13.6251 9.63465 14.0324 10.0675C14.4397 10.5004 14.6666 11.0723 14.6667 11.6667V14.6667H12.6667V10.6667C12.6667 10.2047 12.6 9.75868 12.4747 9.33734ZM3.66667 5.33334C4.1087 5.33334 4.53262 5.50894 4.84518 5.8215C5.15774 6.13406 5.33334 6.55798 5.33334 7.00001C5.33334 7.44204 5.15774 7.86596 4.84518 8.17852C4.53262 8.49108 4.1087 8.66668 3.66667 8.66668C3.22464 8.66668 2.80072 8.49108 2.48816 8.17852C2.1756 7.86596 2 7.44204 2 7.00001C2 6.55798 2.1756 6.13406 2.48816 5.8215C2.80072 5.50894 3.22464 5.33334 3.66667 5.33334V5.33334ZM12.3333 5.33334C12.7754 5.33334 13.1993 5.50894 13.5118 5.8215C13.8244 6.13406 14 6.55798 14 7.00001C14 7.44204 13.8244 7.86596 13.5118 8.17852C13.1993 8.49108 12.7754 8.66668 12.3333 8.66668C11.8913 8.66668 11.4674 8.49108 11.1548 8.17852C10.8423 7.86596 10.6667 7.44204 10.6667 7.00001C10.6667 6.55798 10.8423 6.13406 11.1548 5.8215C11.4674 5.50894 11.8913 5.33334 12.3333 5.33334V5.33334ZM8 1.33334C8.70725 1.33334 9.38552 1.6143 9.88562 2.11439C10.3857 2.61449 10.6667 3.29277 10.6667 4.00001C10.6667 4.70725 10.3857 5.38553 9.88562 5.88563C9.38552 6.38573 8.70725 6.66668 8 6.66668C7.29276 6.66668 6.61448 6.38573 6.11438 5.88563C5.61429 5.38553 5.33334 4.70725 5.33334 4.00001C5.33334 3.29277 5.61429 2.61449 6.11438 2.11439C6.61448 1.6143 7.29276 1.33334 8 1.33334V1.33334Z" fill="#00304A"/>
</svg>
