<svg width="8" height="6" viewBox="0 0 8 6" fill="none" xmlns="http://www.w3.org/2000/svg">
<path d="M0.473307 1.19333C0.534983 1.13153 0.608242 1.0825 0.688891 1.04904C0.76954 1.01559 0.855995 0.998367 0.943307 0.998367C1.03062 0.998367 1.11707 1.01559 1.19772 1.04904C1.27837 1.0825 1.35163 1.13153 1.41331 1.19333L3.99997 3.78L6.58664 1.19333C6.64836 1.13161 6.72164 1.08265 6.80228 1.04925C6.88292 1.01584 6.96935 0.99865 7.05664 0.99865C7.14393 0.99865 7.23036 1.01584 7.311 1.04925C7.39165 1.08265 7.46492 1.13161 7.52664 1.19333C7.58836 1.25505 7.63732 1.32833 7.67072 1.40897C7.70413 1.48961 7.72132 1.57604 7.72132 1.66333C7.72132 1.75062 7.70413 1.83705 7.67072 1.91769C7.63732 1.99833 7.58836 2.07161 7.52664 2.13333L4.46664 5.19333C4.40496 5.25513 4.33171 5.30416 4.25106 5.33762C4.17041 5.37107 4.08395 5.38829 3.99664 5.38829C3.90933 5.38829 3.82287 5.37107 3.74222 5.33762C3.66158 5.30416 3.58832 5.25513 3.52664 5.19333L0.466641 2.13333C0.213307 1.88 0.213307 1.45333 0.473307 1.19333Z" fill="#00304A" fill-opacity="0.6"/>
</svg>
